<?xml version="1.0" encoding="UTF-8"?>
<svg version="1.1" xmlns="http://www.w3.org/2000/svg" width="510" height="73">
<path d="M0 0 C1.41925781 -0.00386719 1.41925781 -0.00386719 2.8671875 -0.0078125 C4.32511719 0.00378906 4.32511719 0.00378906 5.8125 0.015625 C6.78445312 0.00789062 7.75640625 0.00015625 8.7578125 -0.0078125 C9.70398438 -0.00523437 10.65015625 -0.00265625 11.625 0 C12.47707031 0.00225586 13.32914063 0.00451172 14.20703125 0.00683594 C16.8125 0.265625 16.8125 0.265625 22.8125 2.265625 C22.8125 15.135625 22.8125 28.005625 22.8125 41.265625 C18.50662386 40.18915596 16.80056505 39.49596559 13.8125 36.265625 C13.36791992 34.05273437 13.36791992 34.05273437 13.16796875 31.609375 C13.09602295 30.79662109 13.02407715 29.98386719 12.94995117 29.14648438 C12.90459229 28.52580078 12.8592334 27.90511719 12.8125 27.265625 C10.24749635 28.8450162 7.68550002 30.4289618 5.125 32.015625 C4.0431543 32.68078125 4.0431543 32.68078125 2.93945312 33.359375 C-0.209123 35.31465515 -3.15031682 37.23505786 -6.01953125 39.59375 C-8.1875 41.265625 -8.1875 41.265625 -11.1875 41.265625 C-11.1875 28.395625 -11.1875 15.525625 -11.1875 2.265625 C-4.42577678 0.01171726 -4.42577678 0.01171726 0 0 Z M-3.1875 8.265625 C-3.1875 11.895625 -3.1875 15.525625 -3.1875 19.265625 C-1.846875 18.5025 -0.50625 17.739375 0.875 16.953125 C4.77479604 14.7810867 8.67647401 12.93763551 12.8125 11.265625 C13.1425 11.925625 13.4725 12.585625 13.8125 13.265625 C13.8125 11.615625 13.8125 9.965625 13.8125 8.265625 C8.2025 8.265625 2.5925 8.265625 -3.1875 8.265625 Z M13.8125 13.265625 C13.8125 17.225625 13.8125 21.185625 13.8125 25.265625 C14.1425 25.265625 14.4725 25.265625 14.8125 25.265625 C14.8125 21.305625 14.8125 17.345625 14.8125 13.265625 C14.4825 13.265625 14.1525 13.265625 13.8125 13.265625 Z " fill="#F6B11F" transform="translate(24.1875,6.734375)"/>
<path d="M0 0 C0.00410889 1.02883301 0.00821777 2.05766602 0.01245117 3.11767578 C0.03430788 6.9536269 0.08866353 10.78856176 0.15258789 14.62402344 C0.17571129 16.28049949 0.19015032 17.93712138 0.19555664 19.59375 C0.20488843 21.98268921 0.24596464 24.36935279 0.29296875 26.7578125 C0.2890361 27.49242706 0.28510345 28.22704163 0.28105164 28.98391724 C0.44293435 34.7550089 2.03553322 37.10051843 6 41 C10.62086759 43.61031311 15.32035756 45 20.625 45 C29.25631419 42.5418532 29.25631419 42.5418532 36 37 C37.65848917 32.11474162 38.23948046 27.89947343 38.1953125 22.75390625 C38.19106766 21.76994118 38.19106766 21.76994118 38.18673706 20.76609802 C38.17565984 18.69803591 38.15058063 16.63042827 38.125 14.5625 C38.11495402 13.14909485 38.10583102 11.73568283 38.09765625 10.32226562 C38.07576184 6.88136606 38.04132051 3.44072748 38 0 C39.31371987 0.47581198 40.62594546 0.95575149 41.9375 1.4375 C42.66839844 1.70433594 43.39929687 1.97117187 44.15234375 2.24609375 C46 3 46 3 47 4 C47.24365593 8.00518663 47.22859842 12.01414418 47.24023438 16.02612305 C47.2498437 18.02990691 47.2809944 20.03355017 47.3125 22.03710938 C47.3463207 30.42041584 47.31958358 37.15627164 41.625 43.75 C40.325625 44.86375 40.325625 44.86375 39 46 C37.88625 47.0209375 37.88625 47.0209375 36.75 48.0625 C30.2906728 52.61338962 24.250594 54.87086072 16.26171875 54.57421875 C8.22516605 53.15940049 0.19272293 49.25310418 -4.8125 42.6875 C-7.74090794 38.10116263 -8.13566094 34.76741301 -8.09765625 29.3671875 C-8.0962413 28.61535187 -8.09482635 27.86351624 -8.09336853 27.08889771 C-8.08776465 24.6842249 -8.07521157 22.27964473 -8.0625 19.875 C-8.0574855 18.24609509 -8.0529225 16.61718873 -8.04882812 14.98828125 C-8.03779397 10.99215173 -8.02052679 6.99609158 -8 3 C-1.125 0 -1.125 0 0 0 Z " fill="#F6B21F" transform="translate(11,13)"/>
<path d="M0 0 C2.07038456 4.14076912 3.03905098 8.50643109 1.99316406 13.09765625 C-1.81118791 20.38465492 -12.88529137 25.4382701 -20 29 C-21.32 29.33 -22.64 29.66 -24 30 C-24 24.72 -24 19.44 -24 14 C-22.948125 13.443125 -21.89625 12.88625 -20.8125 12.3125 C-18.27994612 10.8740094 -16.66113282 9.66113282 -14.5625 7.5625 C-10.26305825 3.26305825 -6.18990127 0 0 0 Z " fill="#D9222D" transform="translate(37,18)"/>
<path d="M0 0 C1.48831242 0.00667405 2.97660807 0.01863442 4.46484375 0.03515625 C5.22345703 0.03966797 5.98207031 0.04417969 6.76367188 0.04882812 C8.64326246 0.06064945 10.52281274 0.07858547 12.40234375 0.09765625 C13.39017469 3.06114906 13.536449 5.06892255 13.52734375 8.16015625 C13.53121094 9.47693359 13.53121094 9.47693359 13.53515625 10.8203125 C13.40234375 13.09765625 13.40234375 13.09765625 12.40234375 15.09765625 C11.41234375 15.09765625 10.42234375 15.09765625 9.40234375 15.09765625 C9.40234375 11.46765625 9.40234375 7.83765625 9.40234375 4.09765625 C8.41234375 4.09765625 7.42234375 4.09765625 6.40234375 4.09765625 C6.40234375 7.39765625 6.40234375 10.69765625 6.40234375 14.09765625 C5.08234375 14.09765625 3.76234375 14.09765625 2.40234375 14.09765625 C2.40234375 10.79765625 2.40234375 7.49765625 2.40234375 4.09765625 C1.74234375 4.09765625 1.08234375 4.09765625 0.40234375 4.09765625 C0.41394531 4.72414063 0.42554687 5.350625 0.4375 5.99609375 C0.44652344 6.81335938 0.45554687 7.630625 0.46484375 8.47265625 C0.47644531 9.28476562 0.48804687 10.096875 0.5 10.93359375 C0.40234375 13.09765625 0.40234375 13.09765625 -0.59765625 15.09765625 C-1.91765625 14.76765625 -3.23765625 14.43765625 -4.59765625 14.09765625 C-4.62451563 11.95188988 -4.64398713 9.8060298 -4.66015625 7.66015625 C-4.67175781 6.46519531 -4.68335937 5.27023438 -4.6953125 4.0390625 C-4.55229808 -0.26853198 -4.42802071 0.120196 0 0 Z " fill="#041B59" transform="translate(108.59765625,18.90234375)"/>
<path d="M0 0 C1.134375 0.020625 2.26875 0.04125 3.4375 0.0625 C3.4375 0.7225 3.4375 1.3825 3.4375 2.0625 C9.0475 2.0625 14.6575 2.0625 20.4375 2.0625 C20.4375 1.4025 20.4375 0.7425 20.4375 0.0625 C21.0975 0.0625 21.7575 0.0625 22.4375 0.0625 C22.4375 0.7225 22.4375 1.3825 22.4375 2.0625 C23.0975 2.0625 23.7575 2.0625 24.4375 2.0625 C24.4375 2.7225 24.4375 3.3825 24.4375 4.0625 C23.7775 4.0625 23.1175 4.0625 22.4375 4.0625 C22.4375 4.7225 22.4375 5.3825 22.4375 6.0625 C23.0975 6.0625 23.7575 6.0625 24.4375 6.0625 C24.4375 6.7225 24.4375 7.3825 24.4375 8.0625 C23.880625 7.876875 23.32375 7.69125 22.75 7.5 C20.00237353 6.98017878 18.16178435 7.47872478 15.4375 8.0625 C13.4378559 8.10022913 11.43695939 8.10899906 9.4375 8.0625 C9.4375 6.7425 9.4375 5.4225 9.4375 4.0625 C8.7775 4.0625 8.1175 4.0625 7.4375 4.0625 C7.4375 5.3825 7.4375 6.7025 7.4375 8.0625 C3.4775 8.0625 -0.4825 8.0625 -4.5625 8.0625 C-4.2325 7.0725 -3.9025 6.0825 -3.5625 5.0625 C-3.87728446 3.72466607 -4.20837656 2.39046291 -4.5625 1.0625 C-3.5625 0.0625 -3.5625 0.0625 0 0 Z M3.4375 4.0625 C3.4375 4.7225 3.4375 5.3825 3.4375 6.0625 C4.0975 6.0625 4.7575 6.0625 5.4375 6.0625 C5.4375 5.4025 5.4375 4.7425 5.4375 4.0625 C4.7775 4.0625 4.1175 4.0625 3.4375 4.0625 Z " fill="#1A2C5C" transform="translate(399.5625,19.9375)"/>
<path d="M0 0 C7.92 0 15.84 0 24 0 C25 5 25 5 24 8 C16.74 8 9.48 8 2 8 C2 6.02 2 4.04 2 2 C1.34 2 0.68 2 0 2 C0 1.34 0 0.68 0 0 Z M16 1 C17 4 17 4 17 4 Z M4 2 C4.33 2.66 4.66 3.32 5 4 C5.66 3.34 6.32 2.68 7 2 C6.01 2 5.02 2 4 2 Z " fill="#1A2C5D" transform="translate(363,35)"/>
<path d="M0 0 C2.83203125 0.03255208 5.6640625 0.06510417 8.49609375 0.09765625 C8.49609375 4.71765625 8.49609375 9.33765625 8.49609375 14.09765625 C7.17609375 14.09765625 5.85609375 14.09765625 4.49609375 14.09765625 C4.49609375 10.79765625 4.49609375 7.49765625 4.49609375 4.09765625 C3.50609375 4.42765625 2.51609375 4.75765625 1.49609375 5.09765625 C1.51671875 6.37640625 1.53734375 7.65515625 1.55859375 8.97265625 C1.62109375 12.84765625 1.62109375 12.84765625 0.49609375 15.09765625 C-0.49390625 15.09765625 -1.48390625 15.09765625 -2.50390625 15.09765625 C-3.87643356 12.35260162 -3.6361988 10.09438213 -3.62890625 7.03515625 C-3.63148438 5.95105469 -3.6340625 4.86695313 -3.63671875 3.75 C-3.4556914 0.13477736 -3.4556914 0.13477736 0 0 Z " fill="#04195D" transform="translate(192.50390625,18.90234375)"/>
<path d="M0 0 C0.556875 0.185625 1.11375 0.37125 1.6875 0.5625 C4.41721945 1.07893341 6.31135581 0.62045635 9 0 C9.99 0 10.98 0 12 0 C12.33 0.99 12.66 1.98 13 3 C13.33 2.01 13.66 1.02 14 0 C14.598125 0.185625 15.19625 0.37125 15.8125 0.5625 C18.16408762 1.22093687 18.16408762 1.22093687 21 0 C21 2.64 21 5.28 21 8 C14 8 7 8 0 8 C0 5.36 0 2.72 0 0 Z " fill="#1A2C5C" transform="translate(309,63)"/>
<path d="M0 0 C3.5625 0.1875 3.5625 0.1875 5.5625 2.1875 C5.86328125 4.71875 5.86328125 4.71875 5.875 7.6875 C5.89175781 8.6671875 5.90851563 9.646875 5.92578125 10.65625 C5.74595703 11.90921875 5.74595703 11.90921875 5.5625 13.1875 C1.7121895 15.75437367 -0.02319763 15.02038724 -4.4375 14.1875 C-4.46435938 12.04173363 -4.48383088 9.89587355 -4.5 7.75 C-4.51160156 6.55503906 -4.52320313 5.36007813 -4.53515625 4.12890625 C-4.39496903 -0.09353267 -4.30492513 0.2348141 0 0 Z M-0.4375 9.1875 C-0.4375 9.8475 -0.4375 10.5075 -0.4375 11.1875 C0.2225 11.1875 0.8825 11.1875 1.5625 11.1875 C1.5625 10.5275 1.5625 9.8675 1.5625 9.1875 C0.9025 9.1875 0.2425 9.1875 -0.4375 9.1875 Z " fill="#051E5B" transform="translate(137.4375,18.8125)"/>
<path d="M0 0 C1.670625 0.37125 1.670625 0.37125 3.375 0.75 C4.75726016 3.51452033 4.47025387 5.7961363 4.4375 8.875 C4.42847656 9.97070312 4.41945312 11.06640625 4.41015625 12.1953125 C4.39855469 13.03835937 4.38695312 13.88140625 4.375 14.75 C3.055 14.42 1.735 14.09 0.375 13.75 C0.375 12.43 0.375 11.11 0.375 9.75 C-0.615 9.75 -1.605 9.75 -2.625 9.75 C-2.955 11.4 -3.285 13.05 -3.625 14.75 C-4.615 14.42 -5.605 14.09 -6.625 13.75 C-6.70582094 11.79233719 -6.76410778 9.83373272 -6.8125 7.875 C-6.84730469 6.78445312 -6.88210937 5.69390625 -6.91796875 4.5703125 C-6.82128906 3.63960937 -6.72460938 2.70890625 -6.625 1.75 C-3.625 -0.25 -3.625 -0.25 0 0 Z M-2.625 3.75 C-2.625 4.41 -2.625 5.07 -2.625 5.75 C-1.635 5.75 -0.645 5.75 0.375 5.75 C0.375 5.09 0.375 4.43 0.375 3.75 C-0.615 3.75 -1.605 3.75 -2.625 3.75 Z " fill="#051D5A" transform="translate(160.625,19.25)"/>
<path d="M0 0 C3.625 0.25 3.625 0.25 5.625 1.3125 C7.19425605 4.3529336 6.20204662 6.96083426 5.625 10.25 C5.97159295 12.57158065 5.97159295 12.57158065 6.625 14.25 C5.305 14.25 3.985 14.25 2.625 14.25 C1.965 13.26 1.305 12.27 0.625 11.25 C0.295 12.57 -0.035 13.89 -0.375 15.25 C-1.695 14.92 -3.015 14.59 -4.375 14.25 C-4.40185938 12.10423363 -4.42133088 9.95837355 -4.4375 7.8125 C-4.44910156 6.61753906 -4.46070313 5.42257813 -4.47265625 4.19140625 C-4.33359336 0.00283215 -4.25321393 0.31505288 0 0 Z M-0.375 4.25 C-0.375 4.91 -0.375 5.57 -0.375 6.25 C0.615 5.92 1.605 5.59 2.625 5.25 C1.635 4.92 0.645 4.59 -0.375 4.25 Z " fill="#051E5A" transform="translate(242.375,18.75)"/>
<path d="M0 0 C1.64453125 1.1640625 1.64453125 1.1640625 3 3 C3.29296875 5.69921875 3.29296875 5.69921875 3.1875 8.6875 C3.16042969 9.68136719 3.13335937 10.67523438 3.10546875 11.69921875 C3.07066406 12.45847656 3.03585938 13.21773437 3 14 C1.68 14 0.36 14 -1 14 C-1 12.68 -1 11.36 -1 10 C-1.99 10 -2.98 10 -4 10 C-4.33 11.65 -4.66 13.3 -5 15 C-5.99 15 -6.98 15 -8 15 C-8.08078641 12.87561661 -8.13909141 10.7503677 -8.1875 8.625 C-8.22230469 7.44164062 -8.25710937 6.25828125 -8.29296875 5.0390625 C-8.19628906 4.03617188 -8.09960938 3.03328125 -8 2 C-4.76746204 -0.15502531 -3.74849077 -0.46856135 0 0 Z M-4 4 C-4 4.66 -4 5.32 -4 6 C-3.01 6 -2.02 6 -1 6 C-1 5.34 -1 4.68 -1 4 C-1.99 4 -2.98 4 -4 4 Z " fill="#051E5B" transform="translate(99,19)"/>
<path d="M0 0 C0.9075 0.00257812 1.815 0.00515625 2.75 0.0078125 C4.11125 0.00394531 4.11125 0.00394531 5.5 0 C7.75 0.1328125 7.75 0.1328125 8.75 1.1328125 C8.82258946 3.31920703 8.83373783 5.50781639 8.8125 7.6953125 C8.80347656 8.89285156 8.79445313 10.09039062 8.78515625 11.32421875 C8.77355469 12.25105469 8.76195313 13.17789063 8.75 14.1328125 C7.43 14.1328125 6.11 14.1328125 4.75 14.1328125 C4.75 10.8328125 4.75 7.5328125 4.75 4.1328125 C3.43 4.1328125 2.11 4.1328125 0.75 4.1328125 C0.75 7.4328125 0.75 10.7328125 0.75 14.1328125 C-0.57 14.1328125 -1.89 14.1328125 -3.25 14.1328125 C-3.27685938 11.98704613 -3.29633088 9.84118605 -3.3125 7.6953125 C-3.32410156 6.50035156 -3.33570312 5.30539063 -3.34765625 4.07421875 C-3.21869788 0.18999258 -3.21869788 0.18999258 0 0 Z " fill="#051E5B" transform="translate(79.25,18.8671875)"/>
<path d="M0 0 C1.32 0 2.64 0 4 0 C4 3.63 4 7.26 4 11 C4.99 11 5.98 11 7 11 C7 7.37 7 3.74 7 0 C8.32 0 9.64 0 11 0 C11.08078641 2.12438339 11.13909141 4.2496323 11.1875 6.375 C11.22230469 7.55835938 11.25710937 8.74171875 11.29296875 9.9609375 C11.19628906 10.96382812 11.09960938 11.96671875 11 13 C7.1496895 15.56687367 5.41430237 14.83288724 1 14 C-1.25068913 9.49862174 -1.24661958 5.93239162 -1 1 C-0.67 0.67 -0.34 0.34 0 0 Z " fill="#041C56" transform="translate(175,19)"/>
<path d="M0 0 C1.23556641 0.01740234 1.23556641 0.01740234 2.49609375 0.03515625 C3.32238281 0.04417969 4.14867187 0.05320312 5 0.0625 C5.63808594 0.07410156 6.27617187 0.08570312 6.93359375 0.09765625 C6.76859375 0.84015625 6.60359375 1.58265625 6.43359375 2.34765625 C5.81433679 5.28772203 5.81433679 5.28772203 5.93359375 9.09765625 C4.28359375 9.09765625 2.63359375 9.09765625 0.93359375 9.09765625 C0.93359375 9.75765625 0.93359375 10.41765625 0.93359375 11.09765625 C2.91359375 11.09765625 4.89359375 11.09765625 6.93359375 11.09765625 C6.60359375 12.41765625 6.27359375 13.73765625 5.93359375 15.09765625 C-0.81640625 15.22265625 -0.81640625 15.22265625 -3.06640625 14.09765625 C-3.09326563 11.95188988 -3.11273713 9.8060298 -3.12890625 7.66015625 C-3.14050781 6.46519531 -3.15210938 5.27023438 -3.1640625 4.0390625 C-3.03472503 0.14341801 -3.03472503 0.14341801 0 0 Z " fill="#041D5A" transform="translate(228.06640625,18.90234375)"/>
<path d="M0 0 C7.92 0 15.84 0 24 0 C23.67 1.98 23.34 3.96 23 6 C21.02 6 19.04 6 17 6 C17 5.34 17 4.68 17 4 C16.34 4 15.68 4 15 4 C15 4.66 15 5.32 15 6 C13.02 6 11.04 6 9 6 C9 5.34 9 4.68 9 4 C8.34 4 7.68 4 7 4 C7 4.66 7 5.32 7 6 C5.02 6 3.04 6 1 6 C0.67 4.02 0.34 2.04 0 0 Z " fill="#D92027" transform="translate(442,51)"/>
<path d="M0 0 C0.66 0 1.32 0 2 0 C2 2.97 2 5.94 2 9 C3.65 9 5.3 9 7 9 C6.95875 7.88625 6.9175 6.7725 6.875 5.625 C7 2 7 2 9 0 C11.5 -0.25 11.5 -0.25 14 0 C16 2 16 2 16.265625 3.875 C16.26046875 4.57625 16.2553125 5.2775 16.25 6 C16.25515625 6.70125 16.2603125 7.4025 16.265625 8.125 C16 10 16 10 14 12 C11.5 12.125 11.5 12.125 9 12 C8.34 12 7.68 12 7 12 C4.66666667 12 2.33333333 12 0 12 C0 8.04 0 4.08 0 0 Z M10 3 C10 4.98 10 6.96 10 9 C10.99 9 11.98 9 13 9 C13 7.02 13 5.04 13 3 C12.01 3 11.02 3 10 3 Z " fill="#051E5B" transform="translate(259,42)"/>
<path d="M0 0 C1.3921875 0.2784375 1.3921875 0.2784375 2.8125 0.5625 C6.01343771 1.24123881 6.01343771 1.24123881 9 0 C9.33 0.99 9.66 1.98 10 3 C10.66 2.01 11.32 1.02 12 0 C12.66 0 13.32 0 14 0 C14.33 0.99 14.66 1.98 15 3 C15.66 2.01 16.32 1.02 17 0 C17.66 0 18.32 0 19 0 C19.33 2.31 19.66 4.62 20 7 C17.29283758 7.90238747 15.76223232 8.11851302 12.98828125 8.09765625 C11.85229492 8.09282227 11.85229492 8.09282227 10.69335938 8.08789062 C9.90767578 8.07951172 9.12199219 8.07113281 8.3125 8.0625 C7.51521484 8.05798828 6.71792969 8.05347656 5.89648438 8.04882812 C3.93095743 8.0370585 1.96546915 8.01912348 0 8 C0.66 6.35 1.32 4.7 2 3 C1.34 2.67 0.68 2.34 0 2 C0 1.34 0 0.68 0 0 Z " fill="#1A2C5C" transform="translate(489,35)"/>
<path d="M0 0 C0.33 1.32 0.66 2.64 1 4 C-0.32 4.33 -1.64 4.66 -3 5 C-2.34 5.391875 -1.68 5.78375 -1 6.1875 C1 8 1 8 1.375 10.5625 C1 13 1 13 -1 15 C-4.125 15.125 -4.125 15.125 -7 15 C-7.66 13.68 -8.32 12.36 -9 11 C-7.02 10.67 -5.04 10.34 -3 10 C-4.98 8.68 -6.96 7.36 -9 6 C-8.625 3.5625 -8.625 3.5625 -8 1 C-5.29120665 -0.35439668 -2.99066732 -0.06501451 0 0 Z " fill="#041D57" transform="translate(260,19)"/>
<path d="M0 0 C1.32 0 2.64 0 4 0 C4.33 1.98 4.66 3.96 5 6 C5.66 6 6.32 6 7 6 C7.33 4.02 7.66 2.04 8 0 C9.32 0.33 10.64 0.66 12 1 C11.60388039 2.96259262 11.18238306 4.92007661 10.75 6.875 C10.51796875 7.96554688 10.2859375 9.05609375 10.046875 10.1796875 C9 13 9 13 6.890625 14.3828125 C6.26671875 14.58648437 5.6428125 14.79015625 5 15 C2.62886517 10.03715966 0.56825653 5.54050113 0 0 Z " fill="#041D5A" transform="translate(211,19)"/>
<path d="M0 0 C4.33333333 0 8.66666667 0 13 0 C13.66 2.64 14.32 5.28 15 8 C10.05 8 5.1 8 0 8 C0 5.36 0 2.72 0 0 Z " fill="#1A2C5C" transform="translate(334,63)"/>
<path d="M0 0 C2.97 0 5.94 0 9 0 C9 0.99 9 1.98 9 3 C9.66 3.33 10.32 3.66 11 4 C11.33 2.68 11.66 1.36 12 0 C12.99 0 13.98 0 15 0 C15 2.64 15 5.28 15 8 C9.72 8 4.44 8 -1 8 C-0.01 6.02 0.98 4.04 2 2 C1.34 2 0.68 2 0 2 C0 1.34 0 0.68 0 0 Z " fill="#1A2C5C" transform="translate(443,35)"/>
<path d="M0 0 C2.97 0 5.94 0 9 0 C9.33 0.99 9.66 1.98 10 3 C10.66 2.01 11.32 1.02 12 0 C12.66 0 13.32 0 14 0 C14.33 2.31 14.66 4.62 15 7 C11.57767028 8.14077657 8.91326783 8.09815117 5.3125 8.0625 C3.54326172 8.04896484 3.54326172 8.04896484 1.73828125 8.03515625 C0.83464844 8.02355469 -0.06898438 8.01195312 -1 8 C-0.01 6.02 0.98 4.04 2 2 C1.34 2 0.68 2 0 2 C0 1.34 0 0.68 0 0 Z " fill="#1B2C5C" transform="translate(446,20)"/>
<path d="M0 0 C0.66 0 1.32 0 2 0 C2 0.99 2 1.98 2 3 C6.62 3 11.24 3 16 3 C16 4.98 16 6.96 16 9 C10.72 9 5.44 9 0 9 C0 6.03 0 3.06 0 0 Z M7 5 C7 5.66 7 6.32 7 7 C7.66 7 8.32 7 9 7 C9 6.34 9 5.68 9 5 C8.34 5 7.68 5 7 5 Z " fill="#1A2C5D" transform="translate(334,48)"/>
<path d="M0 0 C1.32 0 2.64 0 4 0 C4 1.98 4 3.96 4 6 C4.33 4.02 4.66 2.04 5 0 C8.3 0 11.6 0 15 0 C14.34 2.64 13.68 5.28 13 8 C8.38 8 3.76 8 -1 8 C-0.01 6.02 0.98 4.04 2 2 C1.34 2 0.68 2 0 2 C0 1.34 0 0.68 0 0 Z M7 2 C8 6 8 6 8 6 Z M10 2 C10.33 3.32 10.66 4.64 11 6 C11.33 4.68 11.66 3.36 12 2 C11.34 2 10.68 2 10 2 Z " fill="#1A2C5C" transform="translate(472,35)"/>
<path d="M0 0 C1.32 0 2.64 0 4 0 C4 1.98 4 3.96 4 6 C4.33 4.02 4.66 2.04 5 0 C8.3 0 11.6 0 15 0 C14.34 2.64 13.68 5.28 13 8 C8.38 8 3.76 8 -1 8 C-0.01 6.02 0.98 4.04 2 2 C1.34 2 0.68 2 0 2 C0 1.34 0 0.68 0 0 Z M7 2 C8 6 8 6 8 6 Z M10 2 C10.33 3.32 10.66 4.64 11 6 C11.33 4.68 11.66 3.36 12 2 C11.34 2 10.68 2 10 2 Z " fill="#1B2C5C" transform="translate(475,20)"/>
<path d="M0 0 C2.375 0.6875 2.375 0.6875 3.375 1.6875 C3.44705511 3.37358966 3.45886068 5.06250659 3.4375 6.75 C3.42847656 7.66910156 3.41945312 8.58820312 3.41015625 9.53515625 C3.39855469 10.24542969 3.38695312 10.95570312 3.375 11.6875 C2.385 11.6875 1.395 11.6875 0.375 11.6875 C0.375 10.3675 0.375 9.0475 0.375 7.6875 C-0.615 7.6875 -1.605 7.6875 -2.625 7.6875 C-2.625 9.0075 -2.625 10.3275 -2.625 11.6875 C-3.615 11.6875 -4.605 11.6875 -5.625 11.6875 C-5.70590971 10.06331255 -5.76414995 8.43798255 -5.8125 6.8125 C-5.84730469 5.90757813 -5.88210937 5.00265625 -5.91796875 4.0703125 C-5.82128906 3.28398438 -5.72460938 2.49765625 -5.625 1.6875 C-2.625 -0.3125 -2.625 -0.3125 0 0 Z M-2.625 2.6875 C-2.625 3.3475 -2.625 4.0075 -2.625 4.6875 C-1.635 4.3575 -0.645 4.0275 0.375 3.6875 C-0.615 3.3575 -1.605 3.0275 -2.625 2.6875 Z " fill="#051E5B" transform="translate(171.625,42.3125)"/>
<path d="M0 0 C1.9375 0.375 1.9375 0.375 4 1 C4.33 1.66 4.66 2.32 5 3 C5.66 2.01 6.32 1.02 7 0 C7.99 0 8.98 0 10 0 C9.22225866 5.05531868 8.14051606 10.01716284 7 15 C5.68 14.67 4.36 14.34 3 14 C0.88838269 4.58997722 0.88838269 4.58997722 0 0 Z " fill="#051E5C" transform="translate(283,19)"/>
<path d="M0 0 C3.63 0 7.26 0 11 0 C10.67 1.32 10.34 2.64 10 4 C9.01 4 8.02 4 7 4 C7 7.63 7 11.26 7 15 C6.01 15 5.02 15 4 15 C2.61899366 12.23798732 3.06812281 9.91003504 3.2578125 6.875 C3.13019531 5.946875 3.13019531 5.946875 3 5 C2.01 4.34 1.02 3.68 0 3 C0 2.01 0 1.02 0 0 Z " fill="#041B59" transform="translate(271,19)"/>
<path d="M0 0 C2.97 0 5.94 0 9 0 C9 3.96 9 7.92 9 12 C8.01 12 7.02 12 6 12 C6 9.03 6 6.06 6 3 C5.01 3 4.02 3 3 3 C3 5.97 3 8.94 3 12 C2.01 12 1.02 12 0 12 C0 8.04 0 4.08 0 0 Z " fill="#051E5B" transform="translate(237,42)"/>
<path d="M0 0 C2.97 0 5.94 0 9 0 C9 3.96 9 7.92 9 12 C8.01 12 7.02 12 6 12 C6 9.03 6 6.06 6 3 C5.01 3 4.02 3 3 3 C3 5.97 3 8.94 3 12 C2.01 12 1.02 12 0 12 C0 8.04 0 4.08 0 0 Z " fill="#051D5B" transform="translate(176,42)"/>
<path d="M0 0 C2.97 0 5.94 0 9 0 C9 3.96 9 7.92 9 12 C8.01 12 7.02 12 6 12 C6 9.03 6 6.06 6 3 C5.01 3 4.02 3 3 3 C3 5.97 3 8.94 3 12 C2.01 12 1.02 12 0 12 C0 8.04 0 4.08 0 0 Z " fill="#051E5B" transform="translate(133,42)"/>
<path d="M0 0 C0.94875 0.04125 1.8975 0.0825 2.875 0.125 C2.875 1.115 2.875 2.105 2.875 3.125 C1.225 3.125 -0.425 3.125 -2.125 3.125 C-2.125 5.105 -2.125 7.085 -2.125 9.125 C-1.795 7.805 -1.465 6.485 -1.125 5.125 C0.525 5.125 2.175 5.125 3.875 5.125 C3.91754356 7.12454746 3.91580783 9.12541636 3.875 11.125 C2.875 12.125 2.875 12.125 -0.0625 12.3125 C-3.125 12.125 -3.125 12.125 -5.125 10.125 C-5.390625 8.25 -5.390625 8.25 -5.375 6.125 C-5.38015625 5.42375 -5.3853125 4.7225 -5.390625 4 C-4.88506733 0.43135764 -3.38047153 0.13521886 0 0 Z " fill="#041D58" transform="translate(281.125,41.875)"/>
<path d="M0 0 C0.66 0 1.32 0 2 0 C2 0.99 2 1.98 2 3 C5.96 3 9.92 3 14 3 C14 4.98 14 6.96 14 9 C9.38 9 4.76 9 0 9 C0 6.03 0 3.06 0 0 Z M11 5 C12 7 12 7 12 7 Z M4 6 C5 8 5 8 5 8 Z " fill="#1A2C5C" transform="translate(334,19)"/>
<path d="M0 0 C0.99 0 1.98 0 3 0 C3 1.32 3 2.64 3 4 C3.66 4 4.32 4 5 4 C5 2.68 5 1.36 5 0 C5.99 0 6.98 0 8 0 C8 3.96 8 7.92 8 12 C7.01 12 6.02 12 5 12 C5 10.35 5 8.7 5 7 C4.34 7 3.68 7 3 7 C3 8.65 3 10.3 3 12 C2.01 12 1.02 12 0 12 C0 8.04 0 4.08 0 0 Z " fill="#041E5C" transform="translate(226,42)"/>
<path d="M0 0 C1.98 0 3.96 0 6 0 C8 2 8 2 8.265625 3.875 C8.26046875 4.57625 8.2553125 5.2775 8.25 6 C8.25515625 6.70125 8.2603125 7.4025 8.265625 8.125 C8 10 8 10 6 12 C4.02 12 2.04 12 0 12 C0 8.04 0 4.08 0 0 Z M3 3 C3 4.98 3 6.96 3 9 C3.66 9 4.32 9 5 9 C5 7.02 5 5.04 5 3 C4.34 3 3.68 3 3 3 Z " fill="#041E5B" transform="translate(187,42)"/>
<path d="M0 0 C2.5 0.25 2.5 0.25 4.5 2.25 C4.765625 4.125 4.765625 4.125 4.75 6.25 C4.75515625 6.95125 4.7603125 7.6525 4.765625 8.375 C4.5 10.25 4.5 10.25 2.5 12.25 C0 12.5 0 12.5 -2.5 12.25 C-4.5 10.25 -4.5 10.25 -4.765625 8.375 C-4.76046875 7.67375 -4.7553125 6.9725 -4.75 6.25 C-4.75515625 5.54875 -4.7603125 4.8475 -4.765625 4.125 C-4.31971142 0.97737476 -3.03899237 0.30389924 0 0 Z M-0.5 2.25 C-1.85618499 3.37534105 -1.85618499 3.37534105 -1.5625 6.3125 C-1.541875 7.281875 -1.52125 8.25125 -1.5 9.25 C-0.51 9.25 0.48 9.25 1.5 9.25 C1.5 7.27 1.5 5.29 1.5 3.25 C0.84 2.92 0.18 2.59 -0.5 2.25 Z " fill="#051E5B" transform="translate(252.5,41.75)"/>
<path d="M0 0 C2.5 0.25 2.5 0.25 4.5 2.25 C4.765625 4.125 4.765625 4.125 4.75 6.25 C4.75515625 6.95125 4.7603125 7.6525 4.765625 8.375 C4.5 10.25 4.5 10.25 2.5 12.25 C0 12.5 0 12.5 -2.5 12.25 C-4.5 10.25 -4.5 10.25 -4.765625 8.375 C-4.76046875 7.67375 -4.7553125 6.9725 -4.75 6.25 C-4.75515625 5.54875 -4.7603125 4.8475 -4.765625 4.125 C-4.31971142 0.97737476 -3.03899237 0.30389924 0 0 Z M-0.5 2.25 C-1.85618499 3.37534105 -1.85618499 3.37534105 -1.5625 6.3125 C-1.541875 7.281875 -1.52125 8.25125 -1.5 9.25 C-0.51 9.25 0.48 9.25 1.5 9.25 C1.5 7.27 1.5 5.29 1.5 3.25 C0.84 2.92 0.18 2.59 -0.5 2.25 Z " fill="#051E5B" transform="translate(80.5,41.75)"/>
<path d="M0 0 C2.31 0 4.62 0 7 0 C7 2.33333333 7 4.66666667 7 7 C5.68 7 4.36 7 3 7 C3 7.66 3 8.32 3 9 C4.65 9 6.3 9 8 9 C8 9.99 8 10.98 8 12 C5.36 12 2.72 12 0 12 C0 8.04 0 4.08 0 0 Z " fill="#041D59" transform="translate(124,42)"/>
<path d="M0 0 C0.66 0 1.32 0 2 0 C2 0.66 2 1.32 2 2 C2.66 2 3.32 2 4 2 C4 2.66 4 3.32 4 4 C3.34 4 2.68 4 2 4 C2 4.66 2 5.32 2 6 C3.32 6.66 4.64 7.32 6 8 C0.72 8 -4.56 8 -10 8 C-10 6.02 -10 4.04 -10 2 C-6.7 2 -3.4 2 0 2 C0 1.34 0 0.68 0 0 Z M-1 3 C0 5 0 5 0 5 Z M-5 5 C-4 7 -4 7 -4 7 Z " fill="#DA2027" transform="translate(486,49)"/>
<path d="M0 0 C2.31 0 4.62 0 7 0 C7 2.31 7 4.62 7 7 C5.68 7 4.36 7 3 7 C3 7.66 3 8.32 3 9 C4.65 9.33 6.3 9.66 8 10 C7.67 10.66 7.34 11.32 7 12 C4.69 12 2.38 12 0 12 C0 8.04 0 4.08 0 0 Z " fill="#051E5C" transform="translate(208,42)"/>
<path d="M0 0 C2.31 0 4.62 0 7 0 C7 2.31 7 4.62 7 7 C5.68 7 4.36 7 3 7 C3 7.66 3 8.32 3 9 C4.32 9 5.64 9 7 9 C7 9.99 7 10.98 7 12 C4.69 12 2.38 12 0 12 C0 8.04 0 4.08 0 0 Z " fill="#051C5B" transform="translate(153,42)"/>
<path d="M0 0 C1.98 0 3.96 0 6 0 C6.33 0.66 6.66 1.32 7 2 C8.32 2 9.64 2 11 2 C11 3.98 11 5.96 11 8 C7.37 8 3.74 8 0 8 C0 5.36 0 2.72 0 0 Z " fill="#1A2C5C" transform="translate(344,35)"/>
<path d="M0 0 C3.33333333 0 6.66666667 0 10 0 C10 0.66 10 1.32 10 2 C10.99 2 11.98 2 13 2 C13 2.66 13 3.32 13 4 C11.68 4 10.36 4 9 4 C9 5.32 9 6.64 9 8 C8.01 8 7.02 8 6 8 C6 7.34 6 6.68 6 6 C5.34 6 4.68 6 4 6 C4 6.66 4 7.32 4 8 C3.01 8 2.02 8 1 8 C0.67 5.36 0.34 2.72 0 0 Z " fill="#DA2028" transform="translate(427,49)"/>
<path d="M0 0 C0 0.66 0 1.32 0 2 C-0.99 2 -1.98 2 -3 2 C-3.33 4.31 -3.66 6.62 -4 9 C-4.99 9 -5.98 9 -7 9 C-7 8.34 -7 7.68 -7 7 C-7.66 7 -8.32 7 -9 7 C-9 7.66 -9 8.32 -9 9 C-9.99 9 -10.98 9 -12 9 C-12.33 6.36 -12.66 3.72 -13 1 C-11.68 1 -10.36 1 -9 1 C-2.875 0 -2.875 0 0 0 Z " fill="#1B2B5C" transform="translate(322,48)"/>
<path d="M0 0 C1.4540625 0.0309375 1.4540625 0.0309375 2.9375 0.0625 C2.9375 1.0525 2.9375 2.0425 2.9375 3.0625 C1.9475 3.3925 0.9575 3.7225 -0.0625 4.0625 C1.2575 5.0525 2.5775 6.0425 3.9375 7.0625 C3.0625 10.9375 3.0625 10.9375 1.9375 12.0625 C-0.06208364 12.10330783 -2.06295254 12.10504356 -4.0625 12.0625 C-4.0625 11.0725 -4.0625 10.0825 -4.0625 9.0625 C-2.7425 8.7325 -1.4225 8.4025 -0.0625 8.0625 C-1.3825 7.4025 -2.7025 6.7425 -4.0625 6.0625 C-4.105221 4.39638095 -4.10313832 2.72867115 -4.0625 1.0625 C-3.0625 0.0625 -3.0625 0.0625 0 0 Z " fill="#041E5A" transform="translate(105.0625,41.9375)"/>
<path d="M0 0 C1.65 0 3.3 0 5 0 C4.814375 0.61875 4.62875 1.2375 4.4375 1.875 C3.76313824 4.04160178 3.76313824 4.04160178 5 6 C5.33 4.68 5.66 3.36 6 2 C7.65 2.33 9.3 2.66 11 3 C11 4.65 11 6.3 11 8 C7.37 8 3.74 8 0 8 C0 5.36 0 2.72 0 0 Z " fill="#1A2C5C" transform="translate(357,20)"/>
<path d="M0 0 C2.31 0 4.62 0 7 0 C7 2.33333333 7 4.66666667 7 7 C5.68 7 4.36 7 3 7 C3 8.65 3 10.3 3 12 C2.01 12 1.02 12 0 12 C0 8.04 0 4.08 0 0 Z " fill="#051D5C" transform="translate(87,42)"/>
<path d="M0 0 C0.33 0.99 0.66 1.98 1 3 C-0.65 3 -2.3 3 -4 3 C-4 4.98 -4 6.96 -4 9 C-2.35 9 -0.7 9 1 9 C0.67 9.99 0.34 10.98 0 12 C-2.375 12.125 -2.375 12.125 -5 12 C-7 10 -7 10 -7.1953125 7.8359375 C-7.17210937 7.02382813 -7.14890625 6.21171875 -7.125 5.375 C-7.10695312 4.55773438 -7.08890625 3.74046875 -7.0703125 2.8984375 C-7.04710937 2.27195313 -7.02390625 1.64546875 -7 1 C-4.53721199 -0.231394 -2.7204945 -0.07159196 0 0 Z " fill="#031C59" transform="translate(224,42)"/>
<path d="M0 0 C0.33 0.99 0.66 1.98 1 3 C-0.65 3 -2.3 3 -4 3 C-4 4.98 -4 6.96 -4 9 C-2.35 9 -0.7 9 1 9 C0.67 9.99 0.34 10.98 0 12 C-2.375 12.125 -2.375 12.125 -5 12 C-7 10 -7 10 -7.1953125 7.8359375 C-7.17210938 7.02382813 -7.14890625 6.21171875 -7.125 5.375 C-7.10695313 4.55773438 -7.08890625 3.74046875 -7.0703125 2.8984375 C-7.04710938 2.27195313 -7.02390625 1.64546875 -7 1 C-4.53721199 -0.231394 -2.7204945 -0.07159196 0 0 Z " fill="#041E5C" transform="translate(117,42)"/>
<path d="M0 0 C3.125 -0.1875 3.125 -0.1875 6 0 C6 0.99 6 1.98 6 3 C4.35 3 2.7 3 1 3 C1 4.98 1 6.96 1 9 C2.65 9 4.3 9 6 9 C6 9.99 6 10.98 6 12 C3.125 12.1875 3.125 12.1875 0 12 C-2.31332486 8.53001271 -2.33957563 7.07490752 -2 3 C-1.34 2.01 -0.68 1.02 0 0 Z " fill="#051D5A" transform="translate(145,42)"/>
<path d="M0 0 C3.63 0 7.26 0 11 0 C11 2.64 11 5.28 11 8 C10.34 8 9.68 8 9 8 C9 6.02 9 4.04 9 2 C8.34 2 7.68 2 7 2 C7 3.98 7 5.96 7 8 C6.34 8 5.68 8 5 8 C5 6.02 5 4.04 5 2 C4.34 2 3.68 2 3 2 C3 3.98 3 5.96 3 8 C2.34 8 1.68 8 1 8 C0.67 5.36 0.34 2.72 0 0 Z " fill="#1A2C5C" transform="translate(498,20)"/>
<path d="M0 0 C1.32 0.33 2.64 0.66 4 1 C4 5.29 4 9.58 4 14 C2.68 14.33 1.36 14.66 0 15 C0 10.05 0 5.1 0 0 Z " fill="#031759" transform="translate(265,19)"/>
<path d="M0 0 C1.32 0.33 2.64 0.66 4 1 C4 5.29 4 9.58 4 14 C2.68 14.33 1.36 14.66 0 15 C0 10.05 0 5.1 0 0 Z " fill="#031C5B" transform="translate(147,19)"/>
<path d="M0 0 C1.32 0 2.64 0 4 0 C4 4.62 4 9.24 4 14 C2.68 14 1.36 14 0 14 C0 9.38 0 4.76 0 0 Z " fill="#051E5A" transform="translate(125,19)"/>
<path d="M0 0 C3.3 0 6.6 0 10 0 C10 1.98 10 3.96 10 6 C6.7 6 3.4 6 0 6 C0 4.02 0 2.04 0 0 Z " fill="#1A2C5C" transform="translate(377,22)"/>
<path d="M0 0 C2.97 0 5.94 0 9 0 C9 0.99 9 1.98 9 3 C8.01 3 7.02 3 6 3 C6 5.97 6 8.94 6 12 C5.01 12 4.02 12 3 12 C3 9.03 3 6.06 3 3 C2.01 3 1.02 3 0 3 C0 2.01 0 1.02 0 0 Z " fill="#051D58" transform="translate(198,42)"/>
<path d="M0 0 C0.721875 0.185625 1.44375 0.37125 2.1875 0.5625 C5.12826973 1.01995307 7.14103058 0.73516357 10 0 C10 1.98 10 3.96 10 6 C6.7 6 3.4 6 0 6 C0 4.02 0 2.04 0 0 Z " fill="#D92027" transform="translate(493,51)"/>
<path d="M0 0 C0.99 0 1.98 0 3 0 C3.33 0.66 3.66 1.32 4 2 C5.32 1.34 6.64 0.68 8 0 C7.33333333 4 6.66666667 8 6 12 C5.01 12 4.02 12 3 12 C2 8 1 4 0 0 Z " fill="#051E59" transform="translate(285,42)"/>
<path d="M0 0 C3.63 0 7.26 0 11 0 C10.34 1.98 9.68 3.96 9 6 C6.03 6 3.06 6 0 6 C0 4.02 0 2.04 0 0 Z " fill="#1A2C5C" transform="translate(316,37)"/>
<path d="M0 0 C0.66 0 1.32 0 2 0 C3 5.75 3 5.75 3 8 C0.36 8 -2.28 8 -5 8 C-6 5 -6 5 -5 2 C-3.35 2 -1.7 2 0 2 C0 1.34 0 0.68 0 0 Z " fill="#1B2C5C" transform="translate(333,35)"/>
<path d="M0 0 C0.66 0 1.32 0 2 0 C2.33 0.66 2.66 1.32 3 2 C4.32 2 5.64 2 7 2 C7 3.98 7 5.96 7 8 C4.03 8 1.06 8 -2 8 C-2 7.34 -2 6.68 -2 6 C-1.34 6 -0.68 6 0 6 C0 4.02 0 2.04 0 0 Z " fill="#1A2C5C" transform="translate(321,20)"/>
<path d="M0 0 C0.99 0 1.98 0 3 0 C3 4.95 3 9.9 3 15 C2.01 15 1.02 15 0 15 C0 10.05 0 5.1 0 0 Z " fill="#051E5B" transform="translate(205,19)"/>
<path d="M0 0 C2.31 0 4.62 0 7 0 C7 2.64 7 5.28 7 8 C6.01 8 5.02 8 4 8 C4 7.34 4 6.68 4 6 C2.68 6 1.36 6 0 6 C0 4.02 0 2.04 0 0 Z " fill="#1A2C5C" transform="translate(369,22)"/>
<path d="M0 0 C1.98 0 3.96 0 6 0 C5.67 2.64 5.34 5.28 5 8 C3.35 8 1.7 8 0 8 C0 5.36 0 2.72 0 0 Z " fill="#1B2C5C" transform="translate(356,37)"/>
<path d="M0 0 C2.31 0 4.62 0 7 0 C7 1.98 7 3.96 7 6 C4.69 6 2.38 6 0 6 C0 4.02 0 2.04 0 0 Z " fill="#1A2C5C" transform="translate(320,51)"/>
<path d="M0 0 C0.99 0 1.98 0 3 0 C3 3.96 3 7.92 3 12 C2.01 12 1.02 12 0 12 C0 8.04 0 4.08 0 0 Z " fill="#061E5B" transform="translate(119,42)"/>
<path d="M0 0 C1.32 0 2.64 0 4 0 C4.33 2.31 4.66 4.62 5 7 C3.34385343 7.38218767 1.67542976 7.71395102 0 8 C-0.33 7.67 -0.66 7.34 -1 7 C-0.71269945 4.66055264 -0.38063221 2.3260857 0 0 Z " fill="#1B2C5C" transform="translate(461,35)"/>
<path d="M0 0 C1.32 0 2.64 0 4 0 C4.33 2.31 4.66 4.62 5 7 C3.34385343 7.38218767 1.67542976 7.71395102 0 8 C-0.33 7.67 -0.66 7.34 -1 7 C-0.71269945 4.66055264 -0.38063221 2.3260857 0 0 Z " fill="#1B2C5C" transform="translate(464,20)"/>
<path d="M0 0 C0.66 0 1.32 0 2 0 C2 2.97 2 5.94 2 9 C0.35 9 -1.3 9 -3 9 C-3 7.02 -3 5.04 -3 3 C-2.01 3 -1.02 3 0 3 C0 2.01 0 1.02 0 0 Z M-1 5 C0 7 0 7 0 7 Z " fill="#1A2C5C" transform="translate(331,48)"/>
<path d="M0 0 C1.98 0 3.96 0 6 0 C6 1.65 6 3.3 6 5 C4.68 5 3.36 5 2 5 C2 5.99 2 6.98 2 8 C1.34 8 0.68 8 0 8 C0 5.36 0 2.72 0 0 Z " fill="#1A2C5D" transform="translate(309,35)"/>
<path d="M0 0 C1.32 0 2.64 0 4 0 C4 2.64 4 5.28 4 8 C2.68 8 1.36 8 0 8 C-0.38063221 5.6739143 -0.71269945 3.33944736 -1 1 C-0.67 0.67 -0.34 0.34 0 0 Z M1 2 C2 4 2 4 2 4 Z " fill="#1A2C5C" transform="translate(493,20)"/>
<path d="M0 0 C0.66 0 1.32 0 2 0 C2 0.99 2 1.98 2 3 C2.66 3 3.32 3 4 3 C4.33 4.98 4.66 6.96 5 9 C3.35 9 1.7 9 0 9 C0 6.03 0 3.06 0 0 Z " fill="#1A2C5C" transform="translate(351,48)"/>
<path d="M0 0 C1.65 0.33 3.3 0.66 5 1 C5 2.65 5 4.3 5 6 C2.36 6 -0.28 6 -3 6 C-2.01 5.67 -1.02 5.34 0 5 C0 3.35 0 1.7 0 0 Z " fill="#D92028" transform="translate(470,51)"/>
<path d="M0 0 C2.475 0.495 2.475 0.495 5 1 C5 2.65 5 4.3 5 6 C3.35 6 1.7 6 0 6 C0 4.02 0 2.04 0 0 Z " fill="#1A2C5C" transform="translate(388,22)"/>
<path d="M0 0 C1.32 0 2.64 0 4 0 C4 2.64 4 5.28 4 8 C2.68 8 1.36 8 0 8 C0 5.36 0 2.72 0 0 Z " fill="#1A2C5D" transform="translate(313,20)"/>
<path d="M0 0 C2.475 0.495 2.475 0.495 5 1 C4.67 2.65 4.34 4.3 4 6 C2.68 6 1.36 6 0 6 C0 4.02 0 2.04 0 0 Z " fill="#1A2C5D" transform="translate(337,37)"/>
<path d="M0 0 C1.65 0 3.3 0 5 0 C4.67 1.65 4.34 3.3 4 5 C3.34 5 2.68 5 2 5 C2 5.99 2 6.98 2 8 C1.34 8 0.68 8 0 8 C0 5.36 0 2.72 0 0 Z " fill="#1A2C5C" transform="translate(428,35)"/>
<path d="M0 0 C2.475 0.495 2.475 0.495 5 1 C5 2.65 5 4.3 5 6 C3.35 6 1.7 6 0 6 C0 4.02 0 2.04 0 0 Z " fill="#1A2C5C" transform="translate(349,22)"/>
<path d="M0 0 C2.31 0 4.62 0 7 0 C6.34 2.64 5.68 5.28 5 8 C4.34 8 3.68 8 3 8 C3 6.02 3 4.04 3 2 C2.01 1.67 1.02 1.34 0 1 C0 0.67 0 0.34 0 0 Z " fill="#1A2C5C" transform="translate(427,20)"/>
<path d="M0 0 C1.32 0 2.64 0 4 0 C4 0.66 4 1.32 4 2 C3.34 2 2.68 2 2 2 C2 2.66 2 3.32 2 4 C2.66 4 3.32 4 4 4 C4 4.66 4 5.32 4 6 C2.68 6 1.36 6 0 6 C0 4.02 0 2.04 0 0 Z " fill="#1A2C5C" transform="translate(329,22)"/>
<path d="M0 0 C0.99 0 1.98 0 3 0 C3 2.64 3 5.28 3 8 C2.34 8 1.68 8 1 8 C0.67 5.36 0.34 2.72 0 0 Z " fill="#1A2C5C" transform="translate(466,35)"/>
<path d="M0 0 C0.99 0 1.98 0 3 0 C3 2.64 3 5.28 3 8 C2.34 8 1.68 8 1 8 C0.67 5.36 0.34 2.72 0 0 Z " fill="#1A2C5C" transform="translate(469,20)"/>
<path d="M0 0 C0.99 0 1.98 0 3 0 C3 2.64 3 5.28 3 8 C2.34 8 1.68 8 1 8 C0.67 5.36 0.34 2.72 0 0 Z " fill="#1A2C5C" transform="translate(309,20)"/>
<path d="M0 0 C0.66 0 1.32 0 2 0 C2 2.64 2 5.28 2 8 C1.34 8 0.68 8 0 8 C0 5.36 0 2.72 0 0 Z " fill="#1A2C5C" transform="translate(331,63)"/>
<path d="M0 0 C2.0625 0.4375 2.0625 0.4375 4 1 C4 1.66 4 2.32 4 3 C3.34 3 2.68 3 2 3 C2 3.66 2 4.32 2 5 C1.34 5 0.68 5 0 5 C-0.5625 3.0625 -0.5625 3.0625 -1 1 C-0.67 0.67 -0.34 0.34 0 0 Z " fill="#1B2C5C" transform="translate(439,37)"/>
<path d="M0 0 C2.0625 0.4375 2.0625 0.4375 4 1 C4 1.66 4 2.32 4 3 C3.34 3 2.68 3 2 3 C2 3.66 2 4.32 2 5 C1.34 5 0.68 5 0 5 C-0.5625 3.0625 -0.5625 3.0625 -1 1 C-0.67 0.67 -0.34 0.34 0 0 Z " fill="#1B2C5C" transform="translate(442,22)"/>
<path d="M0 0 C0.99 0 1.98 0 3 0 C3 0.66 3 1.32 3 2 C2.01 2 1.02 2 0 2 C0 1.34 0 0.68 0 0 Z " fill="#1C2C5B" transform="translate(433,37)"/>
<path d="M0 0 C0.99 0 1.98 0 3 0 C3 0.66 3 1.32 3 2 C2.01 2 1.02 2 0 2 C0 1.34 0 0.68 0 0 Z " fill="#1C2C5C" transform="translate(319,34)"/>
<path d="M0 0 C0.99 0 1.98 0 3 0 C3 0.66 3 1.32 3 2 C2.01 2 1.02 2 0 2 C0 1.34 0 0.68 0 0 Z " fill="#1C2C5B" transform="translate(433,22)"/>
<path d="M0 0 C0.99 0 1.98 0 3 0 C3 0.66 3 1.32 3 2 C2.01 2 1.02 2 0 2 C0 1.34 0 0.68 0 0 Z " fill="#1C2C5C" transform="translate(374,19)"/>
<path d="M0 0 C3 1 3 1 3 1 Z " fill="#DC1F29" transform="translate(437,56)"/>
<path d="M0 0 C3 1 3 1 3 1 Z " fill="#1C2C5B" transform="translate(433,42)"/>
<path d="M0 0 C3 1 3 1 3 1 Z " fill="#1C2C5B" transform="translate(433,27)"/>
</svg>
