<?xml version="1.0" encoding="UTF-8"?>
<svg version="1.1" xmlns="http://www.w3.org/2000/svg" width="300" height="61">
<path d="M0 0 C99 0 198 0 300 0 C300 20.13 300 40.26 300 61 C201 61 102 61 0 61 C0 40.87 0 20.74 0 0 Z " fill="#FEFEFE" transform="translate(0,0)"/>
<path d="M0 0 C2.1015625 0.20703125 2.1015625 0.20703125 4.625 0.8125 C9.08624516 1.81757703 13.45648322 2.4951648 18 3 C18 4.65 18 6.3 18 8 C19.423125 7.9690625 19.423125 7.9690625 20.875 7.9375 C24 8 24 8 26 9 C26.17648219 12.47850931 26.28156271 15.95584849 26.375 19.4375 C26.42527344 20.41138672 26.47554687 21.38527344 26.52734375 22.38867188 C26.65928489 28.96373868 25.58399271 32.75978561 21.49462891 37.94946289 C19.85503005 40.19888968 18.93772827 42.38929861 18 45 C11.55929529 45.10655578 5.37358711 44.96205088 -1 44 C-1 43.34 -1 42.68 -1 42 C-1.99 42 -2.98 42 -4 42 C-4.33 41.34 -4.66 40.68 -5 40 C-5.99 39.67 -6.98 39.34 -8 39 C-8 37.68 -8 36.36 -8 35 C-9.32 34.67 -10.64 34.34 -12 34 C-12 32.02 -12 30.04 -12 28 C-12.66 28 -13.32 28 -14 28 C-14.10806144 25.08234109 -14.18732877 22.16868875 -14.25 19.25 C-14.28351562 18.425 -14.31703125 17.6 -14.3515625 16.75 C-14.4503293 10.6264581 -14.4503293 10.6264581 -12.2421875 7.5546875 C-10.15643949 6.10847198 -8.18502942 4.92022244 -5.875 3.875 C-3.3636737 2.72831894 -1.98434628 1.98434628 0 0 Z " fill="#FDEEC9" transform="translate(46,11)"/>
<path d="M0 0 C0.66 0 1.32 0 2 0 C2 0.66 2 1.32 2 2 C2.66 2.33 3.32 2.66 4 3 C4.40729228 5.32156597 4.74438677 7.6568787 5 10 C5.33 8.02 5.66 6.04 6 4 C6.66 4 7.32 4 8 4 C8.33 4.99 8.66 5.98 9 7 C9.2475 6.360625 9.495 5.72125 9.75 5.0625 C11 3 11 3 13.125 2.25 C13.74375 2.1675 14.3625 2.085 15 2 C15 1.34 15 0.68 15 0 C17.64 0.66 20.28 1.32 23 2 C23 2.66 23 3.32 23 4 C24.093125 3.979375 25.18625 3.95875 26.3125 3.9375 C30 4 30 4 33 5 C33 4.34 33 3.68 33 3 C34.32 3 35.64 3 37 3 C37.33 2.34 37.66 1.68 38 1 C38.495 2.98 38.495 2.98 39 5 C39.66 3.68 40.32 2.36 41 1 C41.99 1 42.98 1 44 1 C44 1.66 44 2.32 44 3 C47.3 3.33 50.6 3.66 54 4 C54 4.66 54 5.32 54 6 C54.66 6 55.32 6 56 6 C56 5.34 56 4.68 56 4 C56.66 4 57.32 4 58 4 C57.67 6.31 57.34 8.62 57 11 C57.99 11.495 57.99 11.495 59 12 C58.34 12 57.68 12 57 12 C57 12.66 57 13.32 57 14 C57.99 14.495 57.99 14.495 59 15 C58.34 18.63 57.68 22.26 57 26 C56.34 26 55.68 26 55 26 C54.505 24.515 54.505 24.515 54 23 C53.34 23.99 52.68 24.98 52 26 C50.33333333 26 48.66666667 26 47 26 C44.99218823 26.98422146 42.99107248 27.98234073 41 29 C40.34 28.67 39.68 28.34 39 28 C39.33 27.34 39.66 26.68 40 26 C36.30458414 25.04975021 33.69541586 25.04975021 30 26 C29.505 27.485 29.505 27.485 29 29 C28.38125 28.814375 27.7625 28.62875 27.125 28.4375 C24.95839822 27.76313824 24.95839822 27.76313824 23 29 C22.67 28.34 22.34 27.68 22 27 C21.01 26.67 20.02 26.34 19 26 C19 25.01 19 24.02 19 23 C18.34 23 17.68 23 17 23 C17 23.99 17 24.98 17 26 C15.35 26.66 13.7 27.32 12 28 C10.5 26.8125 10.5 26.8125 9 25 C8.8125 22.3125 8.8125 22.3125 9 20 C8.34 20.33 7.68 20.66 7 21 C7 21.66 7 22.32 7 23 C6.34 23 5.68 23 5 23 C5 23.66 5 24.32 5 25 C5.99 25.33 6.98 25.66 8 26 C6.35 26 4.7 26 3 26 C3 24.02 3 22.04 3 20 C2.34 20 1.68 20 1 20 C1 21.98 1 23.96 1 26 C0.34 26 -0.32 26 -1 26 C-1.33 23.36 -1.66 20.72 -2 18 C-1.33613281 17.93941406 -0.67226562 17.87882812 0.01171875 17.81640625 C6.54908081 17.20136493 6.54908081 17.20136493 13 16 C13.33 16.66 13.66 17.32 14 18 C14 17.34 14 16.68 14 16 C14.66 16 15.32 16 16 16 C16 15.01 16 14.02 16 13 C15.00097656 13.01160156 14.00195312 13.02320313 12.97265625 13.03515625 C11.68230469 13.04417969 10.39195312 13.05320312 9.0625 13.0625 C7.77472656 13.07410156 6.48695313 13.08570313 5.16015625 13.09765625 C2 13 2 13 1 12 C0.85884839 9.32941149 0.95752893 6.67567762 1 4 C0.34 4 -0.32 4 -1 4 C-1 6.97 -1 9.94 -1 13 C-1.66 13 -2.32 13 -3 13 C-3 10.36 -3 7.72 -3 5 C-3.99 5 -4.98 5 -6 5 C-6 7.64 -6 10.28 -6 13 C-6.66 13 -7.32 13 -8 13 C-8 9.7 -8 6.4 -8 3 C-6.02 3 -4.04 3 -2 3 C-1.67 2.34 -1.34 1.68 -1 1 C-0.67 0.67 -0.34 0.34 0 0 Z " fill="#E5E7EA" transform="translate(164,19)"/>
<path d="M0 0 C0.8971875 0.309375 0.8971875 0.309375 1.8125 0.625 C1.8125 1.285 1.8125 1.945 1.8125 2.625 C2.1425 1.965 2.4725 1.305 2.8125 0.625 C5.375 0 5.375 0 7.8125 -0.375 C7.8125 0.285 7.8125 0.945 7.8125 1.625 C8.781875 1.604375 9.75125 1.58375 10.75 1.5625 C13.8125 1.625 13.8125 1.625 14.8125 2.625 C15.18010731 4.95317964 15.51491581 7.2868385 15.8125 9.625 C16.1425 7.315 16.4725 5.005 16.8125 2.625 C17.8025 2.625 18.7925 2.625 19.8125 2.625 C19.8125 3.945 19.8125 5.265 19.8125 6.625 C20.4725 6.625 21.1325 6.625 21.8125 6.625 C21.8125 5.305 21.8125 3.985 21.8125 2.625 C23.47861905 2.582279 25.14632885 2.58436168 26.8125 2.625 C27.8125 3.625 27.8125 3.625 27.91015625 5.69140625 C27.89855469 6.51511719 27.88695312 7.33882812 27.875 8.1875 C27.86597656 9.01378906 27.85695312 9.84007812 27.84765625 10.69140625 C27.83605469 11.32949219 27.82445312 11.96757813 27.8125 12.625 C29.1325 12.625 30.4525 12.625 31.8125 12.625 C31.3175 12.13 31.3175 12.13 30.8125 11.625 C30.74023498 9.77212498 30.7286878 7.91666122 30.75 6.0625 C30.75902344 5.05058594 30.76804688 4.03867187 30.77734375 2.99609375 C30.78894531 2.21363281 30.80054688 1.43117188 30.8125 0.625 C32.1325 0.625 33.4525 0.625 34.8125 0.625 C34.8125 1.285 34.8125 1.945 34.8125 2.625 C37.4525 2.625 40.0925 2.625 42.8125 2.625 C42.8125 5.265 42.8125 7.905 42.8125 10.625 C43.8025 10.955 44.7925 11.285 45.8125 11.625 C42.8125 13.625 42.8125 13.625 40.8125 13.625 C40.3175 11.15 40.3175 11.15 39.8125 8.625 C39.1525 8.625 38.4925 8.625 37.8125 8.625 C37.8125 9.945 37.8125 11.265 37.8125 12.625 C38.4725 13.285 39.1325 13.945 39.8125 14.625 C40.4725 15.615 41.1325 16.605 41.8125 17.625 C44.1225 17.295 46.4325 16.965 48.8125 16.625 C49.1425 15.305 49.4725 13.985 49.8125 12.625 C50.3075 14.11 50.3075 14.11 50.8125 15.625 C51.43898438 15.67398438 52.06546875 15.72296875 52.7109375 15.7734375 C53.52820313 15.84820312 54.34546875 15.92296875 55.1875 16 C55.99960938 16.06960937 56.81171875 16.13921875 57.6484375 16.2109375 C59.8125 16.625 59.8125 16.625 61.8125 18.625 C61.9375 21.25 61.9375 21.25 61.8125 23.625 C59.04985711 24.22232819 56.65217231 24.625 53.8125 24.625 C53.8125 22.645 53.8125 20.665 53.8125 18.625 C53.1525 18.625 52.4925 18.625 51.8125 18.625 C51.8125 20.935 51.8125 23.245 51.8125 25.625 C50.3275 26.12 50.3275 26.12 48.8125 26.625 C47.8225 25.635 47.8225 25.635 46.8125 24.625 C46.8125 23.635 46.8125 22.645 46.8125 21.625 C46.1525 21.625 45.4925 21.625 44.8125 21.625 C44.8125 22.615 44.8125 23.605 44.8125 24.625 C44.1525 24.625 43.4925 24.625 42.8125 24.625 C42.3175 23.635 42.3175 23.635 41.8125 22.625 C40.1625 22.625 38.5125 22.625 36.8125 22.625 C37.4725 23.285 38.1325 23.945 38.8125 24.625 C37.575 24.769375 36.3375 24.91375 35.0625 25.0625 C32.24745501 25.41188502 29.5423503 25.82879366 26.8125 26.625 C25.45810332 23.91620665 25.74748549 21.61566732 25.8125 18.625 C25.1525 18.625 24.4925 18.625 23.8125 18.625 C23.8125 20.605 23.8125 22.585 23.8125 24.625 C20.1825 24.625 16.5525 24.625 12.8125 24.625 C12.8125 21.325 12.8125 18.025 12.8125 14.625 C14.1325 14.955 15.4525 15.285 16.8125 15.625 C16.3175 13.645 16.3175 13.645 15.8125 11.625 C12.4609259 10.48991312 10.45574324 10.75190641 7.125 11.875 C6.33738281 12.12765625 5.54976562 12.3803125 4.73828125 12.640625 C2.45719693 13.52291544 2.45719693 13.52291544 1.8125 16.625 C2.72 16.41875 3.6275 16.2125 4.5625 16 C7.92277897 15.6122755 9.05325815 15.82088033 11.8125 17.625 C10.8225 17.955 9.8325 18.285 8.8125 18.625 C8.8125 19.945 8.8125 21.265 8.8125 22.625 C9.8025 22.625 10.7925 22.625 11.8125 22.625 C11.8125 23.285 11.8125 23.945 11.8125 24.625 C7.26825993 26.00204245 4.26503255 25.02672321 -0.1875 23.625 C-3.03428781 23.625 -5.41269413 24.05580905 -8.1875 24.625 C-8.8475 24.625 -9.5075 24.625 -10.1875 24.625 C-12.18962229 24.94533957 -14.18989695 25.27759077 -16.1875 25.625 C-16.5175 24.965 -16.8475 24.305 -17.1875 23.625 C-16.5275 23.625 -15.8675 23.625 -15.1875 23.625 C-15.39375 22.3875 -15.6 21.15 -15.8125 19.875 C-16.4053545 16.31787298 -15.79379177 14.78890803 -14.1875 11.625 C-13.94770238 9.26277768 -13.94770238 9.26277768 -14.0625 6.875 C-14.08054687 6.07578125 -14.09859375 5.2765625 -14.1171875 4.453125 C-14.14039062 3.84984375 -14.16359375 3.2465625 -14.1875 2.625 C-13.57261719 2.57601563 -12.95773438 2.52703125 -12.32421875 2.4765625 C-11.51597656 2.40179687 -10.70773438 2.32703125 -9.875 2.25 C-9.07449219 2.18039063 -8.27398437 2.11078125 -7.44921875 2.0390625 C-4.37769438 1.47674543 -3.16065431 -0.54182645 0 0 Z " fill="#F1F3F5" transform="translate(97.1875,20.375)"/>
<path d="M0 0 C0.66 1.32 1.32 2.64 2 4 C2.66 2.68 3.32 1.36 4 0 C4.99 0 5.98 0 7 0 C7 0.66 7 1.32 7 2 C10.3 2.33 13.6 2.66 17 3 C17 3.66 17 4.32 17 5 C17.66 5 18.32 5 19 5 C19 4.34 19 3.68 19 3 C19.66 3 20.32 3 21 3 C20.67 5.31 20.34 7.62 20 10 C20.66 10.33 21.32 10.66 22 11 C21.34 11 20.68 11 20 11 C20 11.66 20 12.32 20 13 C20.66 13.33 21.32 13.66 22 14 C21.34 17.63 20.68 21.26 20 25 C19.34 25 18.68 25 18 25 C17.505 23.515 17.505 23.515 17 22 C16.34 22.99 15.68 23.98 15 25 C13.33333333 25 11.66666667 25 10 25 C7.99218823 25.98422146 5.99107248 26.98234073 4 28 C3.34 27.67 2.68 27.34 2 27 C2.33 26.34 2.66 25.68 3 25 C-0.69541586 24.04975021 -3.30458414 24.04975021 -7 25 C-7.33 25.99 -7.66 26.98 -8 28 C-8.61875 27.814375 -9.2375 27.62875 -9.875 27.4375 C-12.04160178 26.76313824 -12.04160178 26.76313824 -14 28 C-14.33 27.01 -14.66 26.02 -15 25 C-14.34 25 -13.68 25 -13 25 C-13 23.02 -13 21.04 -13 19 C-12.34 19 -11.68 19 -11 19 C-11 20.98 -11 22.96 -11 25 C-10.34 25 -9.68 25 -9 25 C-8.979375 23.700625 -8.95875 22.40125 -8.9375 21.0625 C-8.92589844 20.33160156 -8.91429687 19.60070312 -8.90234375 18.84765625 C-8.79438816 16.98267859 -8.79438816 16.98267859 -10 16 C-10.04063832 14.33382885 -10.042721 12.66611905 -10 11 C-7.03 11 -4.06 11 -1 11 C-0.67 9.68 -0.34 8.36 0 7 C-0.99 6.67 -1.98 6.34 -3 6 C-2.01 5.67 -1.02 5.34 0 5 C0 4.34 0 3.68 0 3 C-1.32 2.67 -2.64 2.34 -4 2 C-2.68 2 -1.36 2 0 2 C0 1.34 0 0.68 0 0 Z " fill="#F1F2F1" transform="translate(201,20)"/>
<path d="M0 0 C1.53720703 -0.00386719 1.53720703 -0.00386719 3.10546875 -0.0078125 C5.8125 0.125 5.8125 0.125 8.8125 1.125 C8.8125 9.045 8.8125 16.965 8.8125 25.125 C7.4925 24.795 6.1725 24.465 4.8125 24.125 C4.4825 21.485 4.1525 18.845 3.8125 16.125 C2.90886719 16.76308594 2.00523438 17.40117188 1.07421875 18.05859375 C-0.1170526 18.8934217 -1.3084663 19.72804654 -2.5 20.5625 C-3.39235352 21.19381836 -3.39235352 21.19381836 -4.30273438 21.83789062 C-6.91692961 23.66344596 -9.14512396 25.11087465 -12.1875 26.125 C-12.1875 17.875 -12.1875 9.625 -12.1875 1.125 C-7.86195881 0.40407647 -4.30578942 -0.01091455 0 0 Z " fill="#E8C077" transform="translate(54.1875,14.875)"/>
<path d="M0 0 C0.99 0 1.98 0 3 0 C3 2.64 3 5.28 3 8 C4.32 7.01 5.64 6.02 7 5 C7 5.99 7 6.98 7 8 C7.66 8 8.32 8 9 8 C9 7.01 9 6.02 9 5 C9.99 5 10.98 5 12 5 C12 5.99 12 6.98 12 8 C12.99 8 13.98 8 15 8 C15.33 7.34 15.66 6.68 16 6 C16.66 6.33 17.32 6.66 18 7 C18 4.69 18 2.38 18 0 C20.31 0 22.62 0 25 0 C25 2.31 25 4.62 25 7 C24.28972656 7.18175781 23.57945313 7.36351562 22.84765625 7.55078125 C21.46900391 7.92783203 21.46900391 7.92783203 20.0625 8.3125 C18.68771484 8.67794922 18.68771484 8.67794922 17.28515625 9.05078125 C16.53105469 9.36402344 15.77695313 9.67726563 15 10 C14.67 10.99 14.34 11.98 14 13 C14.9075 12.79375 15.815 12.5875 16.75 12.375 C20.11027897 11.9872755 21.24075815 12.19588033 24 14 C23.01 14.33 22.02 14.66 21 15 C21 16.32 21 17.64 21 19 C21.99 19 22.98 19 24 19 C24 19.66 24 20.32 24 21 C19.45575993 22.37704245 16.45253255 21.40172321 12 20 C9.15321219 20 6.77480587 20.43080905 4 21 C3.34 21 2.68 21 2 21 C-0.00212229 21.32033957 -2.00239695 21.65259077 -4 22 C-4.33 21.34 -4.66 20.68 -5 20 C-4.34 20 -3.68 20 -3 20 C-3.226875 18.7625 -3.45375 17.525 -3.6875 16.25 C-4.1939008 12.28203753 -4.1939008 12.28203753 -2.625 10 C-2.08875 9.34 -1.5525 8.68 -1 8 C-0.43491308 5.32490962 -0.22781381 2.73376567 0 0 Z " fill="#F1F3F5" transform="translate(85,24)"/>
<path d="M0 0 C1.32 0 2.64 0 4 0 C3.99887207 0.64026123 3.99774414 1.28052246 3.99658203 1.94018555 C4.00872998 4.85701414 4.0664187 7.77124961 4.125 10.6875 C4.12242188 11.69490234 4.11984375 12.70230469 4.1171875 13.74023438 C4.1659899 19.04504897 4.1659899 19.04504897 6.19799805 23.80517578 C9.40854201 26.72120778 12.31182878 27.64511538 16.5625 27.5 C20.77394691 27.29400531 23.77002403 26.91739765 27 24 C28.74356897 21.09431083 29.27752738 18.82099136 29.4140625 15.453125 C29.45273438 14.60878906 29.49140625 13.76445313 29.53125 12.89453125 C29.5621875 12.02183594 29.593125 11.14914063 29.625 10.25 C29.66367188 9.36183594 29.70234375 8.47367188 29.7421875 7.55859375 C29.83620873 5.3726002 29.92186143 3.18660938 30 1 C31.32 1 32.64 1 34 1 C34.11654436 4.5622231 34.1873639 8.12395342 34.25 11.6875 C34.30027344 13.19860352 34.30027344 13.19860352 34.3515625 14.74023438 C34.45051389 22.23580186 34.45051389 22.23580186 32.109375 26.20703125 C30 28 30 28 28 28 C27.67 28.99 27.34 29.98 27 31 C20.7494762 33.4236725 14.81352191 34.2057951 8.5 31.5 C7.675 31.005 6.85 30.51 6 30 C6 29.34 6 28.68 6 28 C5.071875 27.566875 5.071875 27.566875 4.125 27.125 C1.67374532 25.82727693 0.2794902 24.83526188 -0.61669922 22.15698242 C-1.01949813 19.89027642 -1.1294352 17.78990896 -1.1328125 15.48828125 C-1.13410156 14.64845703 -1.13539062 13.80863281 -1.13671875 12.94335938 C-1.13285156 12.07517578 -1.12898438 11.20699219 -1.125 10.3125 C-1.12886719 9.43271484 -1.13273437 8.55292969 -1.13671875 7.64648438 C-1.13542969 6.81052734 -1.13414063 5.97457031 -1.1328125 5.11328125 C-1.13168457 4.34798096 -1.13055664 3.58268066 -1.12939453 2.79418945 C-1 1 -1 1 0 0 Z " fill="#E9C56C" transform="translate(36,20)"/>
<path d="M0 0 C1.32 0 2.64 0 4 0 C4 1.32 4 2.64 4 4 C5.423125 3.9690625 5.423125 3.9690625 6.875 3.9375 C10 4 10 4 12 5 C12.17648219 8.47850931 12.28156271 11.95584849 12.375 15.4375 C12.42527344 16.41138672 12.47554687 17.38527344 12.52734375 18.38867188 C12.65928489 24.96373868 11.58399271 28.75978561 7.49462891 33.94946289 C5.85503005 36.19888968 4.93772827 38.38929861 4 41 C-2.44070471 41.10655578 -8.62641289 40.96205088 -15 40 C-15 39.34 -15 38.68 -15 38 C-15.99 38 -16.98 38 -18 38 C-18.33 37.34 -18.66 36.68 -19 36 C-19.99 35.67 -20.98 35.34 -22 35 C-21.67 33.68 -21.34 32.36 -21 31 C-19.515 31.99 -19.515 31.99 -18 33 C-18 33.66 -18 34.32 -18 35 C-10.94643026 37.8214279 -4.00368273 37.98305005 3 35 C6.36089593 32.35202139 8.6514789 29.5949496 9.57568359 25.36547852 C9.81157392 22.41785532 9.88269503 19.51931671 9.875 16.5625 C9.895625 15.54478516 9.91625 14.52707031 9.9375 13.47851562 C9.98432937 10.98485157 10.0044667 8.49401111 10 6 C8.68 6 7.36 6 6 6 C6.05220703 7.97033203 6.05220703 7.97033203 6.10546875 9.98046875 C6.13361466 11.71613301 6.16091396 13.45181115 6.1875 15.1875 C6.21263672 16.05181641 6.23777344 16.91613281 6.26367188 17.80664062 C6.32013442 22.71888174 6.21459225 26.01483964 3 30 C-0.95938083 33.58818888 -5.2781635 33.54797488 -10.39453125 33.4375 C-14.37585228 32.76897233 -15.67606271 31.20543075 -18 28 C-16.02 28.33 -14.04 28.66 -12 29 C-12 29.66 -12 30.32 -12 31 C-9.36 31.33 -6.72 31.66 -4 32 C-4 31.01 -4 30.02 -4 29 C-3.01 28.67 -2.02 28.34 -1 28 C-0.67 27.34 -0.34 26.68 0 26 C-0.66 26 -1.32 26 -2 26 C-2.22245393 24.39773045 -2.42746669 22.79303233 -2.625 21.1875 C-2.79902344 19.84751953 -2.79902344 19.84751953 -2.9765625 18.48046875 C-3 16 -3 16 -1 13 C-1 16.63 -1 20.26 -1 24 C0.32 24.33 1.64 24.66 3 25 C3 17.08 3 9.16 3 1 C2.01 0.67 1.02 0.34 0 0 Z " fill="#FCEFC4" transform="translate(60,15)"/>
<path d="M0 0 C0.66 0 1.32 0 2 0 C2 2.31 2 4.62 2 7 C2.99 7 3.98 7 5 7 C5 4.69 5 2.38 5 0 C6.65 0 8.3 0 10 0 C10 2.97 10 5.94 10 9 C10.66 9 11.32 9 12 9 C12 6.36 12 3.72 12 1 C12.99 1 13.98 1 15 1 C15 3.64 15 6.28 15 9 C15.66 9 16.32 9 17 9 C17 6.03 17 3.06 17 0 C17.66 0 18.32 0 19 0 C19.33 2.64 19.66 5.28 20 8 C26.93 8.495 26.93 8.495 34 9 C34 9.99 34 10.98 34 12 C33.34 12 32.68 12 32 12 C32.495 14.475 32.495 14.475 33 17 C32.34 16.34 31.68 15.68 31 15 C31 14.01 31 13.02 31 12 C30.41992188 12.22816406 29.83984375 12.45632812 29.2421875 12.69140625 C24.42544204 14.46390499 21.11525483 15.44276418 16 14 C16 14.66 16 15.32 16 16 C15.01 16.33 14.02 16.66 13 17 C8.125 12.375 8.125 12.375 7 9 C6.21625 9.04125 5.4325 9.0825 4.625 9.125 C2 9 2 9 0 7 C-0.125 3.375 -0.125 3.375 0 0 Z " fill="#C0C4C9" transform="translate(146,23)"/>
<path d="M0 0 C0.8971875 0.309375 0.8971875 0.309375 1.8125 0.625 C1.8125 1.285 1.8125 1.945 1.8125 2.625 C2.1425 1.965 2.4725 1.305 2.8125 0.625 C5.375 0 5.375 0 7.8125 -0.375 C7.8125 0.285 7.8125 0.945 7.8125 1.625 C9.7925 1.625 11.7725 1.625 13.8125 1.625 C13.8125 4.595 13.8125 7.565 13.8125 10.625 C13.4825 10.625 13.1525 10.625 12.8125 10.625 C12.8125 8.315 12.8125 6.005 12.8125 3.625 C11.8225 3.625 10.8325 3.625 9.8125 3.625 C9.8125 5.935 9.8125 8.245 9.8125 10.625 C9.4825 10.625 9.1525 10.625 8.8125 10.625 C8.8125 8.315 8.8125 6.005 8.8125 3.625 C7.8225 3.625 6.8325 3.625 5.8125 3.625 C5.8125 5.935 5.8125 8.245 5.8125 10.625 C3.8325 10.955 1.8525 11.285 -0.1875 11.625 C-0.1875 10.635 -0.1875 9.645 -0.1875 8.625 C-1.1775 8.625 -2.1675 8.625 -3.1875 8.625 C-3.1875 9.615 -3.1875 10.605 -3.1875 11.625 C-5.1875 11.625 -7.1875 11.625 -9.1875 11.625 C-9.1875 8.985 -9.1875 6.345 -9.1875 3.625 C-10.1775 3.625 -11.1675 3.625 -12.1875 3.625 C-12.1875 6.265 -12.1875 8.905 -12.1875 11.625 C-12.8475 11.625 -13.5075 11.625 -14.1875 11.625 C-14.1875 8.655 -14.1875 5.685 -14.1875 2.625 C-12.764375 2.50125 -11.34125 2.3775 -9.875 2.25 C-6.20087021 1.93051045 -3.32194892 -0.56947696 0 0 Z " fill="#9A9DA5" transform="translate(97.1875,20.375)"/>
<path d="M0 0 C2.31 0.33 4.62 0.66 7 1 C7 1.66 7 2.32 7 3 C8.98 2.67 10.96 2.34 13 2 C14.80230168 5.82989106 15.19622241 8.78121808 15 13 C16.32 13 17.64 13 19 13 C19 13.66 19 14.32 19 15 C16.69 15.66 14.38 16.32 12 17 C12.33 16.01 12.66 15.02 13 14 C9.30458414 13.04975021 6.69541586 13.04975021 3 14 C2.67 14.99 2.34 15.98 2 17 C1.38125 16.814375 0.7625 16.62875 0.125 16.4375 C-2.04160178 15.76313824 -2.04160178 15.76313824 -4 17 C-4.33 16.01 -4.66 15.02 -5 14 C-4.34 14 -3.68 14 -3 14 C-3 12.02 -3 10.04 -3 8 C-2.34 8 -1.68 8 -1 8 C-1 9.98 -1 11.96 -1 14 C-0.34 14 0.32 14 1 14 C1.020625 12.700625 1.04125 11.40125 1.0625 10.0625 C1.07410156 9.33160156 1.08570313 8.60070312 1.09765625 7.84765625 C1.20561184 5.98267859 1.20561184 5.98267859 0 5 C-0.04063832 3.33382885 -0.042721 1.66611905 0 0 Z " fill="#F5F6F8" transform="translate(191,31)"/>
<path d="M0 0 C0.33 0 0.66 0 1 0 C1.33 2.31 1.66 4.62 2 7 C2.33 4.69 2.66 2.38 3 0 C3.99 0 4.98 0 6 0 C6 1.32 6 2.64 6 4 C6.66 4 7.32 4 8 4 C8 2.68 8 1.36 8 0 C9.66611905 -0.042721 11.33382885 -0.04063832 13 0 C14 1 14 1 14.09765625 3.06640625 C14.08605469 3.89011719 14.07445313 4.71382812 14.0625 5.5625 C14.05347656 6.38878906 14.04445313 7.21507812 14.03515625 8.06640625 C14.02355469 8.70449219 14.01195313 9.34257813 14 10 C12.35 10.33 10.7 10.66 9 11 C8.34 9.35 7.68 7.7 7 6 C6.34 8.31 5.68 10.62 5 13 C5.66 13.33 6.32 13.66 7 14 C7 14.66 7 15.32 7 16 C6.01 16 5.02 16 4 16 C4 16.66 4 17.32 4 18 C4.66 18.33 5.32 18.66 6 19 C5.34 19 4.68 19 4 19 C4 19.66 4 20.32 4 21 C4.66 21.33 5.32 21.66 6 22 C3.69 22 1.38 22 -1 22 C-1 18.7 -1 15.4 -1 12 C0.32 12.33 1.64 12.66 3 13 C2.73323796 11.01508358 2.73323796 11.01508358 2 9 C1.01 8.67 0.02 8.34 -1 8 C-0.67 5.36 -0.34 2.72 0 0 Z " fill="#C4C8CB" transform="translate(111,23)"/>
<path d="M0 0 C0 2.97 0 5.94 0 9 C0.66 9 1.32 9 2 9 C1.67 9.99 1.34 10.98 1 12 C0.01 12 -0.98 12 -2 12 C-2 12.99 -2 13.98 -2 15 C-7.65611463 15.56561146 -11.22642128 13.71391278 -16 11 C-16 10.34 -16 9.68 -16 9 C-13.92710438 7.36179148 -11.86719935 5.85747352 -9.6875 4.375 C-9.09259766 3.95476563 -8.49769531 3.53453125 -7.88476562 3.1015625 C-3.37843699 0 -3.37843699 0 0 0 Z " fill="#FBF1F4" transform="translate(58,32)"/>
<path d="M0 0 C0.66 0 1.32 0 2 0 C2.17648219 3.47850931 2.28156271 6.95584849 2.375 10.4375 C2.42527344 11.41138672 2.47554687 12.38527344 2.52734375 13.38867188 C2.65928489 19.96373868 1.58399271 23.75978561 -2.50537109 28.94946289 C-4.14496995 31.19888968 -5.06227173 33.38929861 -6 36 C-12.44070471 36.10655578 -18.62641289 35.96205088 -25 35 C-25 34.34 -25 33.68 -25 33 C-25.99 33 -26.98 33 -28 33 C-28.33 32.34 -28.66 31.68 -29 31 C-29.99 30.67 -30.98 30.34 -32 30 C-31.67 28.68 -31.34 27.36 -31 26 C-29.515 26.99 -29.515 26.99 -28 28 C-28 28.66 -28 29.32 -28 30 C-20.94643026 32.8214279 -14.00368273 32.98305005 -7 30 C-3.56925797 27.33441741 -1.33115427 24.56940159 -0.42431641 20.27172852 C-0.18795898 17.18925472 -0.11732449 14.15381335 -0.125 11.0625 C-0.104375 9.99708984 -0.08375 8.93167969 -0.0625 7.83398438 C-0.0156459 5.22186847 0.00446409 2.61244784 0 0 Z " fill="#FBF1CD" transform="translate(70,20)"/>
<path d="M0 0 C1.32 0 2.64 0 4 0 C4 0.66 4 1.32 4 2 C7.3 2.33 10.6 2.66 14 3 C14 3.66 14 4.32 14 5 C14.66 5 15.32 5 16 5 C16 4.34 16 3.68 16 3 C16.66 3 17.32 3 18 3 C17.67 5.31 17.34 7.62 17 10 C17.66 10.33 18.32 10.66 19 11 C18.34 11 17.68 11 17 11 C17 11.66 17 12.32 17 13 C14.69 13 12.38 13 10 13 C9.67 11.68 9.34 10.36 9 9 C9 9.99 9 10.98 9 12 C8.01 11.67 7.02 11.34 6 11 C6 9.02 6 7.04 6 5 C5.34 5 4.68 5 4 5 C3.34 7.31 2.68 9.62 2 12 C1.34 11.67 0.68 11.34 0 11 C0 7.37 0 3.74 0 0 Z " fill="#EAEBEF" transform="translate(204,20)"/>
<path d="M0 0 C0.70501336 3.53930949 0.93847026 6.49093728 0 10 C-4.04936437 13.77940674 -8.76469447 16.25489816 -14 18 C-14.79100383 14.42583455 -15.01385302 11.5434665 -14 8 C-10.41418483 4.6295491 -5.15240018 0 0 0 Z " fill="#D52235" transform="translate(57,22)"/>
<path d="M0 0 C0.33 0.99 0.66 1.98 1 3 C1.62648437 3.04898438 2.25296875 3.09796875 2.8984375 3.1484375 C3.71570313 3.22320312 4.53296875 3.29796875 5.375 3.375 C6.59316406 3.47941406 6.59316406 3.47941406 7.8359375 3.5859375 C10 4 10 4 12 6 C12.125 8.625 12.125 8.625 12 11 C9.23735711 11.59732819 6.83967231 12 4 12 C4 10.02 4 8.04 4 6 C3.34 6 2.68 6 2 6 C2 8.31 2 10.62 2 13 C1.01 13.33 0.02 13.66 -1 14 C-1.66 13.34 -2.32 12.68 -3 12 C-3 11.01 -3 10.02 -3 9 C-3.66 9 -4.32 9 -5 9 C-5.33 9.99 -5.66 10.98 -6 12 C-6 9.69 -6 7.38 -6 5 C-4.35 4.67 -2.7 4.34 -1 4 C-0.67 2.68 -0.34 1.36 0 0 Z " fill="#A9ADB3" transform="translate(147,33)"/>
<path d="M0 0 C0.33 0 0.66 0 1 0 C1.33 1.65 1.66 3.3 2 5 C4.31 5 6.62 5 9 5 C10.50565735 8.01131471 9.62199955 10.64600316 9.15625 13.90625 C8.81577246 16.05865882 8.81577246 16.05865882 10 18 C8.68 18.33 7.36 18.66 6 19 C4.64560332 16.29120665 4.93498549 13.99066732 5 11 C4.34 11 3.68 11 3 11 C3 12.98 3 14.96 3 17 C1.02 16.67 -0.96 16.34 -3 16 C-3 14.35 -3 12.7 -3 11 C-2.01 11 -1.02 11 0 11 C0 10.34 0 9.68 0 9 C-0.99 8.67 -1.98 8.34 -3 8 C-2.01 5.36 -1.02 2.72 0 0 Z " fill="#D8DADE" transform="translate(118,28)"/>
<path d="M0 0 C0.66 0 1.32 0 2 0 C2 0.66 2 1.32 2 2 C2.66 2.33 3.32 2.66 4 3 C4.40729228 5.32156597 4.74438677 7.6568787 5 10 C5.33 8.02 5.66 6.04 6 4 C6.66 4 7.32 4 8 4 C8.33 4.99 8.66 5.98 9 7 C9.99 6.01 10.98 5.02 12 4 C11.67 6.31 11.34 8.62 11 11 C4.71428571 13.42857143 4.71428571 13.42857143 1 12 C1 9.36 1 6.72 1 4 C0.34 4 -0.32 4 -1 4 C-1 6.97 -1 9.94 -1 13 C-1.66 13 -2.32 13 -3 13 C-3 10.36 -3 7.72 -3 5 C-3.99 5 -4.98 5 -6 5 C-6 7.64 -6 10.28 -6 13 C-6.66 13 -7.32 13 -8 13 C-8 9.7 -8 6.4 -8 3 C-6.02 3 -4.04 3 -2 3 C-1.67 2.34 -1.34 1.68 -1 1 C-0.67 0.67 -0.34 0.34 0 0 Z " fill="#A2A5AA" transform="translate(164,19)"/>
<path d="M0 0 C0.33 0 0.66 0 1 0 C1.33 1.98 1.66 3.96 2 6 C2.99 6.33 3.98 6.66 5 7 C5.6875 9.0625 5.6875 9.0625 6 11 C5.01 11 4.02 11 3 11 C3 14.3 3 17.6 3 21 C-0.82989106 22.80230168 -3.78121808 23.19622241 -8 23 C-8.33 22.01 -8.66 21.02 -9 20 C-5.7 20 -2.4 20 1 20 C1 19.34 1 18.68 1 18 C0.01 18 -0.98 18 -2 18 C-2 16.68 -2 15.36 -2 14 C-1.34 13.67 -0.68 13.34 0 13 C-3.57644848 11.7619986 -6.33694766 12.25073929 -10 13 C-10 11.35 -10 9.7 -10 8 C-8.68 8.33 -7.36 8.66 -6 9 C-5.67 8.34 -5.34 7.68 -5 7 C-3.35 7 -1.7 7 0 7 C0 4.69 0 2.38 0 0 Z " fill="#F7F8F9" transform="translate(108,25)"/>
<path d="M0 0 C1.32 0 2.64 0 4 0 C4.11654436 3.5622231 4.1873639 7.12395342 4.25 10.6875 C4.30027344 12.19860352 4.30027344 12.19860352 4.3515625 13.74023438 C4.45037546 21.22531572 4.45037546 21.22531572 2.171875 25.14453125 C0 27 0 27 -3 28 C-3.6875 26.3125 -3.6875 26.3125 -4 24 C-3.525625 23.3296875 -3.05125 22.659375 -2.5625 21.96875 C-0.34726357 17.75980079 -0.4349396 13.87868569 -0.3125 9.1875 C-0.26125977 7.86202148 -0.26125977 7.86202148 -0.20898438 6.50976562 C-0.12689567 4.34027833 -0.06176121 2.1701611 0 0 Z " fill="#E7C266" transform="translate(66,21)"/>
<path d="M0 0 C0.66 0 1.32 0 2 0 C2.33 2.64 2.66 5.28 3 8 C9.93 8.495 9.93 8.495 17 9 C17 9.99 17 10.98 17 12 C16.34 12 15.68 12 15 12 C15.33 13.65 15.66 15.3 16 17 C15.34 16.34 14.68 15.68 14 15 C14 14.01 14 13.02 14 12 C13.43152344 12.22816406 12.86304688 12.45632812 12.27734375 12.69140625 C7.15816084 14.59721224 3.43890621 15.5539732 -2 14 C-2.66 13.01 -3.32 12.02 -4 11 C-3.01 10.67 -2.02 10.34 -1 10 C-0.67 6.7 -0.34 3.4 0 0 Z " fill="#F8F9F9" transform="translate(163,23)"/>
<path d="M0 0 C4.66666667 0 9.33333333 0 14 0 C14 0.66 14 1.32 14 2 C13.01 2.495 13.01 2.495 12 3 C12.66 3.33 13.32 3.66 14 4 C13.67 5.65 13.34 7.3 13 9 C6.9453125 9.1953125 6.9453125 9.1953125 5 9 C4.34 8.34 3.68 7.68 3 7 C2.67 7.66 2.34 8.32 2 9 C1.34 9 0.68 9 0 9 C0 6.03 0 3.06 0 0 Z " fill="#E3E9ED" transform="translate(187,23)"/>
<path d="M0 0 C0.99 0 1.98 0 3 0 C3.33 2.97 3.66 5.94 4 9 C3.01 9.495 3.01 9.495 2 10 C1.34 9.67 0.68 9.34 0 9 C0 6.03 0 3.06 0 0 Z M1 10 C2.32 10.66 3.64 11.32 5 12 C4.67 12.99 4.34 13.98 4 15 C5.32 15.33 6.64 15.66 8 16 C8 16.99 8 17.98 8 19 C7.01 19.495 7.01 19.495 6 20 C6.66 20.66 7.32 21.32 8 22 C6.52093108 22.02689216 5.04172517 22.04634621 3.5625 22.0625 C2.32693359 22.07990234 2.32693359 22.07990234 1.06640625 22.09765625 C-1 22 -1 22 -2 21 C-1.94921875 19.00390625 -1.94921875 19.00390625 -1.6875 16.5625 C-1.60886719 15.75941406 -1.53023438 14.95632812 -1.44921875 14.12890625 C-1 12 -1 12 1 10 Z " fill="#B5B8BC" transform="translate(128,23)"/>
<path d="M0 0 C1.98 0.66 3.96 1.32 6 2 C5.67 4.31 5.34 6.62 5 9 C4.01 9 3.02 9 2 9 C2 9.66 2 10.32 2 11 C2.99 11 3.98 11 5 11 C5 11.66 5 12.32 5 13 C1.04 13 -2.92 13 -7 13 C-6.01 11.35 -5.02 9.7 -4 8 C-3.74803871 5.29046449 -3.74803871 5.29046449 -4 3 C-2.68 2.67 -1.36 2.34 0 2 C0 1.34 0 0.68 0 0 Z " fill="#E6E9EE" transform="translate(179,19)"/>
<path d="M0 0 C0 1.65 0 3.3 0 5 C-1.65 5.33 -3.3 5.66 -5 6 C-5.05421223 9.04190863 -5.09377548 12.08283999 -5.125 15.125 C-5.14175781 15.9809375 -5.15851562 16.836875 -5.17578125 17.71875 C-5.21306681 22.56587293 -4.89580643 26.44707905 -3 31 C-4.32 30.67 -5.64 30.34 -7 30 C-7 28.02 -7 26.04 -7 24 C-7.66 24 -8.32 24 -9 24 C-9.10806144 21.08234109 -9.18732877 18.16868875 -9.25 15.25 C-9.28351562 14.425 -9.31703125 13.6 -9.3515625 12.75 C-9.45075986 6.59976364 -9.45075986 6.59976364 -7.12109375 3.5 C-2.171875 0 -2.171875 0 0 0 Z " fill="#FBFBE1" transform="translate(41,15)"/>
<path d="M0 0 C1.65 0 3.3 0 5 0 C5.33 1.32 5.66 2.64 6 4 C6.66 4 7.32 4 8 4 C7.67 4.99 7.34 5.98 7 7 C6.01 7 5.02 7 4 7 C4 7.99 4 8.98 4 10 C-0.21878192 10.19622241 -3.17010894 9.80230168 -7 8 C-6.67 7.34 -6.34 6.68 -6 6 C-2.9375 5.375 -2.9375 5.375 0 5 C0 3.35 0 1.7 0 0 Z " fill="#FAFDF6" transform="translate(52,37)"/>
<path d="M0 0 C2.64 0.33 5.28 0.66 8 1 C8 3.31 8 5.62 8 8 C8.66 8.33 9.32 8.66 10 9 C9.278125 8.814375 8.55625 8.62875 7.8125 8.4375 C4.86860943 7.97956147 2.87583978 8.36092449 0 9 C-0.33 8.67 -0.66 8.34 -1 8 C-0.82364548 5.30917128 -0.38164079 2.67148554 0 0 Z " fill="#BEC0C4" transform="translate(194,36)"/>
<path d="M0 0 C-0.99 0.33 -1.98 0.66 -3 1 C-3 2.32 -3 3.64 -3 5 C-2.01 5 -1.02 5 0 5 C0 5.66 0 6.32 0 7 C-3.69541586 7.95024979 -6.30458414 7.95024979 -10 7 C-10 4.33333333 -10 1.66666667 -10 -1 C-5.94568308 -2.15837626 -3.78187881 -1.83691257 0 0 Z " fill="#C6C7CC" transform="translate(109,38)"/>
<path d="M0 0 C0.66 0.33 1.32 0.66 2 1 C3.8116283 6.53023377 4.18182005 10.32726378 3 16 C2.34 16 1.68 16 1 16 C1 14.02 1 12.04 1 10 C0.34 10 -0.32 10 -1 10 C-1 11.98 -1 13.96 -1 16 C-1.66 16 -2.32 16 -3 16 C-4 9.375 -4 9.375 -4 6 C-2.68 5.67 -1.36 5.34 0 5 C0 3.35 0 1.7 0 0 Z " fill="#C9CDD1" transform="translate(189,29)"/>
<path d="M0 0 C1.98 0 3.96 0 6 0 C6.09377123 7.41834582 6.17402193 14.66236293 5 22 C4.34 22 3.68 22 3 22 C2.67 15.73 2.34 9.46 2 3 C1.34 2.67 0.68 2.34 0 2 C0 1.34 0 0.68 0 0 Z " fill="#E6BF55" transform="translate(57,16)"/>
<path d="M0 0 C1.32 0 2.64 0 4 0 C4 0.66 4 1.32 4 2 C5.98 2 7.96 2 10 2 C10 2.66 10 3.32 10 4 C9.34 4 8.68 4 8 4 C8 6.64 8 9.28 8 12 C7.34 11.67 6.68 11.34 6 11 C6 9.02 6 7.04 6 5 C5.34 5 4.68 5 4 5 C3.34 7.31 2.68 9.62 2 12 C1.34 11.67 0.68 11.34 0 11 C0 7.37 0 3.74 0 0 Z " fill="#A6A8AD" transform="translate(204,20)"/>
<path d="M0 0 C1.4540625 0.0309375 1.4540625 0.0309375 2.9375 0.0625 C2.9375 2.7025 2.9375 5.3425 2.9375 8.0625 C3.9275 8.3925 4.9175 8.7225 5.9375 9.0625 C2.9375 11.0625 2.9375 11.0625 0.9375 11.0625 C0.6075 9.4125 0.2775 7.7625 -0.0625 6.0625 C-0.7225 6.0625 -1.3825 6.0625 -2.0625 6.0625 C-2.0625 6.7225 -2.0625 7.3825 -2.0625 8.0625 C-2.7225 8.0625 -3.3825 8.0625 -4.0625 8.0625 C-4.10491723 5.72955225 -4.10342937 3.39547433 -4.0625 1.0625 C-3.0625 0.0625 -3.0625 0.0625 0 0 Z " fill="#9B9CA4" transform="translate(137.0625,22.9375)"/>
<path d="M0 0 C1.98 0.99 1.98 0.99 4 2 C4 2.66 4 3.32 4 4 C4.86625 4.28875 5.7325 4.5775 6.625 4.875 C8.78147644 5.59382548 10.92878559 6.34118655 13.0625 7.125 C15.89405977 7.96844334 18.06961603 8.17237553 21 8 C21.33 7.34 21.66 6.68 22 6 C23.32 6 24.64 6 26 6 C26 7.32 26 8.64 26 10 C19.55929529 10.10655578 13.37358711 9.96205088 7 9 C7 8.34 7 7.68 7 7 C6.01 7 5.02 7 4 7 C3.67 6.34 3.34 5.68 3 5 C2.01 4.67 1.02 4.34 0 4 C0 2.68 0 1.36 0 0 Z " fill="#FCFCEC" transform="translate(38,46)"/>
<path d="M0 0 C2.43914492 2.43914492 2.28662523 3.21446431 2.4140625 6.5703125 C2.45273437 7.46621094 2.49140625 8.36210937 2.53125 9.28515625 C2.57765625 10.69087891 2.57765625 10.69087891 2.625 12.125 C2.66367187 13.06988281 2.70234375 14.01476563 2.7421875 14.98828125 C2.83661346 17.32532375 2.92218394 19.66235501 3 22 C1.68 21.34 0.36 20.68 -1 20 C-1.02888514 16.85418577 -1.04675923 13.70840531 -1.0625 10.5625 C-1.07087891 9.66466797 -1.07925781 8.76683594 -1.08789062 7.84179688 C-1.09111328 6.98779297 -1.09433594 6.13378906 -1.09765625 5.25390625 C-1.10551147 4.06776733 -1.10551147 4.06776733 -1.11352539 2.85766602 C-1 1 -1 1 0 0 Z " fill="#ECBD56" transform="translate(37,22)"/>
<path d="M0 0 C1.4540625 0.0309375 1.4540625 0.0309375 2.9375 0.0625 C3.2675 0.7225 3.5975 1.3825 3.9375 2.0625 C4.5975 1.7325 5.2575 1.4025 5.9375 1.0625 C5.6075 3.3725 5.2775 5.6825 4.9375 8.0625 C4.2775 8.0625 3.6175 8.0625 2.9375 8.0625 C2.6075 7.0725 2.2775 6.0825 1.9375 5.0625 C0.9475 6.5475 0.9475 6.5475 -0.0625 8.0625 C-1.3825 8.0625 -2.7025 8.0625 -4.0625 8.0625 C-4.10491723 5.72955225 -4.10342937 3.39547433 -4.0625 1.0625 C-3.0625 0.0625 -3.0625 0.0625 0 0 Z " fill="#BABCBF" transform="translate(216.0625,36.9375)"/>
<path d="M0 0 C0.144375 0.61875 0.28875 1.2375 0.4375 1.875 C0.93152225 4.03258322 0.93152225 4.03258322 2 6 C2.04022391 8.3329866 2.04320247 10.66706666 2 13 C1.01 13.33 0.02 13.66 -1 14 C-1.66 13.34 -2.32 12.68 -3 12 C-3 11.01 -3 10.02 -3 9 C-3.66 9 -4.32 9 -5 9 C-5.33 9.99 -5.66 10.98 -6 12 C-6 9.69 -6 7.38 -6 5 C-4.35 4.67 -2.7 4.34 -1 4 C-0.67 2.68 -0.34 1.36 0 0 Z " fill="#DEE1E5" transform="translate(147,33)"/>
<path d="M0 0 C0 3.3 0 6.6 0 10 C-1.98 10.99 -3.96 11.98 -6 13 C-6 11.68 -6 10.36 -6 9 C-5.01 9 -4.02 9 -3 9 C-3 7.68 -3 6.36 -3 5 C-7.455 6.485 -7.455 6.485 -12 8 C-4.43243243 0 -4.43243243 0 0 0 Z " fill="#C7343D" transform="translate(57,22)"/>
<path d="M0 0 C3.63 0 7.26 0 11 0 C11 0.99 11 1.98 11 3 C9.54462432 3.83848804 8.08559627 4.67063934 6.625 5.5 C5.40683594 6.19609375 5.40683594 6.19609375 4.1640625 6.90625 C2 8 2 8 0 8 C0 5.36 0 2.72 0 0 Z " fill="#FBE7BE" transform="translate(47,19)"/>
<path d="M0 0 C0.66 0 1.32 0 2 0 C2.33 1.98 2.66 3.96 3 6 C3.33 4.02 3.66 2.04 4 0 C4.66 0 5.32 0 6 0 C6.33 0.99 6.66 1.98 7 3 C7.99 2.01 8.98 1.02 10 0 C9.67 2.31 9.34 4.62 9 7 C3.375 9 3.375 9 0 9 C0 6.03 0 3.06 0 0 Z " fill="#B1B5BC" transform="translate(166,23)"/>
<path d="M0 0 C2.875 -0.125 2.875 -0.125 6 0 C7.89353366 1.89353366 9.4198632 3.84526801 11 6 C10.34 6 9.68 6 9 6 C8.67 6.66 8.34 7.32 8 8 C7.01 7.34 6.02 6.68 5 6 C2.32854463 6.80161791 2.32854463 6.80161791 0 8 C0 5.36 0 2.72 0 0 Z " fill="#D0D4D6" transform="translate(90,37)"/>
<path d="M0 0 C2.64 0.66 5.28 1.32 8 2 C8 2.66 8 3.32 8 4 C7.01 4 6.02 4 5 4 C5 4.66 5 5.32 5 6 C5.66 6.33 6.32 6.66 7 7 C6.34 7 5.68 7 5 7 C5 7.66 5 8.32 5 9 C5.66 9.33 6.32 9.66 7 10 C4.69 10 2.38 10 0 10 C0 6.7 0 3.4 0 0 Z " fill="#B9BCC1" transform="translate(110,35)"/>
<path d="M0 0 C4.05979452 4.41282013 4 9.22732735 4 15 C3.67 14.34 3.34 13.68 3 13 C2.01 13 1.02 13 0 13 C-0.33 13.66 -0.66 14.32 -1 15 C-1.66 14.67 -2.32 14.34 -3 14 C-3 13.34 -3 12.68 -3 12 C-2.34 11.67 -1.68 11.34 -1 11 C-0.34786708 8.97536745 -0.34786708 8.97536745 0 7 C-0.99 6.67 -1.98 6.34 -3 6 C-2.01 5.67 -1.02 5.34 0 5 C0 4.34 0 3.68 0 3 C-1.32 2.67 -2.64 2.34 -4 2 C-2.68 2 -1.36 2 0 2 C0 1.34 0 0.68 0 0 Z " fill="#F1F2F5" transform="translate(201,20)"/>
<path d="M0 0 C0.391875 0.66 0.78375 1.32 1.1875 2 C2.85416667 4.29166667 2.85416667 4.29166667 5.6875 4.25 C6.8321875 4.12625 6.8321875 4.12625 8 4 C8.33 5.32 8.66 6.64 9 8 C10.32 8.33 11.64 8.66 13 9 C9.26562152 9.87867729 5.83225427 10.08912219 2 10 C2.33 8.68 2.66 7.36 3 6 C2.01 6 1.02 6 0 6 C-0.38218767 4.34385343 -0.71395102 2.67542976 -1 1 C-0.67 0.67 -0.34 0.34 0 0 Z " fill="#F8FAFB" transform="translate(145,27)"/>
<path d="M0 0 C0.66 0.33 1.32 0.66 2 1 C2 6.61 2 12.22 2 18 C2.66 18 3.32 18 4 18 C4 15.36 4 12.72 4 10 C4.33 10 4.66 10 5 10 C5 13.3 5 16.6 5 20 C3.68 19.67 2.36 19.34 1 19 C0.67 16.36 0.34 13.72 0 11 C-0.33 11 -0.66 11 -1 11 C-1.0270043 9.54176788 -1.04639787 8.08339325 -1.0625 6.625 C-1.07410156 5.81289063 -1.08570313 5.00078125 -1.09765625 4.1640625 C-1 2 -1 2 0 0 Z " fill="#EEC286" transform="translate(58,20)"/>
<path d="M0 0 C0.99 0 1.98 0 3 0 C3.33 2.97 3.66 5.94 4 9 C3.01 9.495 3.01 9.495 2 10 C1.34 9.67 0.68 9.34 0 9 C0 6.03 0 3.06 0 0 Z M1 10 C2.32 10.66 3.64 11.32 5 12 C4.01 13.485 4.01 13.485 3 15 C1.68 15 0.36 15 -1 15 C-0.125 11.125 -0.125 11.125 1 10 Z " fill="#C1C5C8" transform="translate(128,23)"/>
<path d="M0 0 C1.32 0 2.64 0 4 0 C4 6.27 4 12.54 4 19 C3.67 19 3.34 19 3 19 C2.93941406 17.92878906 2.87882812 16.85757813 2.81640625 15.75390625 C2.73201463 14.35675609 2.64736594 12.95962143 2.5625 11.5625 C2.52318359 10.85544922 2.48386719 10.14839844 2.44335938 9.41992188 C2.52375562 5.91309581 2.52375562 5.91309581 1 3 C0.67 8.61 0.34 14.22 0 20 C-0.33 20 -0.66 20 -1 20 C-1.02888514 16.85418577 -1.04675923 13.70840531 -1.0625 10.5625 C-1.07087891 9.66466797 -1.07925781 8.76683594 -1.08789062 7.84179688 C-1.09111328 6.98779297 -1.09433594 6.13378906 -1.09765625 5.25390625 C-1.10551147 4.06776733 -1.10551147 4.06776733 -1.11352539 2.85766602 C-1 1 -1 1 0 0 Z " fill="#EED08A" transform="translate(36,20)"/>
<path d="M0 0 C3.53571429 0.53571429 3.53571429 0.53571429 5 2 C5.04080783 3.99958364 5.04254356 6.00045254 5 8 C4.34 8 3.68 8 3 8 C3 7.34 3 6.68 3 6 C2.01 6 1.02 6 0 6 C0 6.99 0 7.98 0 9 C-0.66 9 -1.32 9 -2 9 C-2.125 5.625 -2.125 5.625 -2 2 C-1.34 1.34 -0.68 0.68 0 0 Z " fill="#8C8E9B" transform="translate(94,23)"/>
<path d="M0 0 C1.66611905 -0.042721 3.33382885 -0.04063832 5 0 C6 1 6 1 6.0625 4.5625 C6.041875 5.696875 6.02125 6.83125 6 8 C5.01 7.67 4.02 7.34 3 7 C2.67 7.66 2.34 8.32 2 9 C1.34 9 0.68 9 0 9 C0 6.03 0 3.06 0 0 Z " fill="#70747D" transform="translate(187,23)"/>
<path d="M0 0 C2.97 0.33 5.94 0.66 9 1 C9 2.32 9 3.64 9 5 C8.34 5 7.68 5 7 5 C7 5.66 7 6.32 7 7 C7.99 7.33 8.98 7.66 10 8 C8.35 8 6.7 8 5 8 C5 6.02 5 4.04 5 2 C4.34 2 3.68 2 3 2 C3 3.98 3 5.96 3 8 C2.34 8 1.68 8 1 8 C0.67 5.36 0.34 2.72 0 0 Z " fill="#A2A5A7" transform="translate(162,37)"/>
<path d="M0 0 C2.31 0 4.62 0 7 0 C7 2.31 7 4.62 7 7 C4.69 7.66 2.38 8.32 0 9 C-0.66 8.34 -1.32 7.68 -2 7 C-1.34 7 -0.68 7 0 7 C0 4.69 0 2.38 0 0 Z " fill="#CBD0DC" transform="translate(103,24)"/>
<path d="M0 0 C0.66 0 1.32 0 2 0 C2.33 1.65 2.66 3.3 3 5 C3.66 5 4.32 5 5 5 C5.33 4.34 5.66 3.68 6 3 C6.99 3.99 7.98 4.98 9 6 C8.01 7.485 8.01 7.485 7 9 C6.01 9 5.02 9 4 9 C3.67 9.66 3.34 10.32 3 11 C2.87625 10.360625 2.7525 9.72125 2.625 9.0625 C2.41875 8.381875 2.2125 7.70125 2 7 C1.34 6.67 0.68 6.34 0 6 C-1.24546405 3.50907189 -0.7767578 2.58919267 0 0 Z " fill="#F8F8F8" transform="translate(135,29)"/>
<path d="M0 0 C2.475 0.495 2.475 0.495 5 1 C5 3.31 5 5.62 5 8 C3.35 8 1.7 8 0 8 C0 5.36 0 2.72 0 0 Z " fill="#737686" transform="translate(120,23)"/>
<path d="M0 0 C0.66 0 1.32 0 2 0 C2 5.94 2 11.88 2 18 C1.01 18 0.02 18 -1 18 C-0.505 9.09 -0.505 9.09 0 0 Z " fill="#EEBD4C" transform="translate(67,24)"/>
<path d="M0 0 C0 2.31 0 4.62 0 7 C-0.33 6.34 -0.66 5.68 -1 5 C-5.455 5.495 -5.455 5.495 -10 6 C-4.15384615 0 -4.15384615 0 0 0 Z " fill="#FADCE1" transform="translate(58,32)"/>
<path d="M0 0 C0.6290625 0.13277344 1.258125 0.26554688 1.90625 0.40234375 C7.26258811 1.50749182 12.56437906 2.39604212 18 3 C18 3.33 18 3.66 18 4 C11.07 4 4.14 4 -3 4 C-2.01 2.68 -1.02 1.36 0 0 Z " fill="#FEF7DA" transform="translate(46,11)"/>
<path d="M0 0 C1.32 0 2.64 0 4 0 C4 2.97 4 5.94 4 9 C4.66 9.33 5.32 9.66 6 10 C5.01 10.33 4.02 10.66 3 11 C2.34 10.67 1.68 10.34 1 10 C0.5859375 7.71484375 0.5859375 7.71484375 0.375 4.9375 C0.30023438 4.01839844 0.22546875 3.09929688 0.1484375 2.15234375 C0.09945312 1.44207031 0.05046875 0.73179688 0 0 Z " fill="#EEF1F4" transform="translate(124,23)"/>
<path d="M0 0 C2.475 0.495 2.475 0.495 5 1 C5 2.65 5 4.3 5 6 C3.35 6.33 1.7 6.66 0 7 C0 4.69 0 2.38 0 0 Z " fill="#A4A8AC" transform="translate(154,38)"/>
<path d="M0 0 C1.32 0 2.64 0 4 0 C4 2.31 4 4.62 4 7 C2.35 6.67 0.7 6.34 -1 6 C-1.042721 4.33388095 -1.04063832 2.66617115 -1 1 C-0.67 0.67 -0.34 0.34 0 0 Z " fill="#AFB1B6" transform="translate(194,38)"/>
<path d="M0 0 C1.65 0 3.3 0 5 0 C5 1.98 5 3.96 5 6 C3.0625 6.5625 3.0625 6.5625 1 7 C0 6 0 6 -0.0625 2.9375 C-0.041875 1.968125 -0.02125 0.99875 0 0 Z " fill="#ACAFB2" transform="translate(205,38)"/>
<path d="M0 0 C1.65 0 3.3 0 5 0 C4.01 0.33 3.02 0.66 2 1 C2 1.66 2 2.32 2 3 C2.99 3 3.98 3 5 3 C5 3.66 5 4.32 5 5 C4.01 5 3.02 5 2 5 C2 5.66 2 6.32 2 7 C2.99 7 3.98 7 5 7 C5 7.66 5 8.32 5 9 C3.35 9 1.7 9 0 9 C0 6.03 0 3.06 0 0 Z " fill="#71757E" transform="translate(179,23)"/>
<path d="M0 0 C2.475 0.495 2.475 0.495 5 1 C5 2.65 5 4.3 5 6 C3.0625 6.5625 3.0625 6.5625 1 7 C0 6 0 6 -0.0625 2.9375 C-0.041875 1.968125 -0.02125 0.99875 0 0 Z " fill="#A5A9AD" transform="translate(83,38)"/>
<path d="M0 0 C0.66 0.66 1.32 1.32 2 2 C2.66 2 3.32 2 4 2 C4 4.31 4 6.62 4 9 C1.5 7.625 1.5 7.625 -1 6 C-1 5.34 -1 4.68 -1 4 C-1.99 3.67 -2.98 3.34 -4 3 C-4 2.34 -4 1.68 -4 1 C-2 0 -2 0 0 0 Z " fill="#E7EAEC" transform="translate(137,36)"/>
<path d="M0 0 C0.33 0.66 0.66 1.32 1 2 C1.66 2 2.32 2 3 2 C3.17942163 5.94727588 3.09350689 8.5980513 1 12 C0.01 11.67 -0.98 11.34 -2 11 C-1.34 7.37 -0.68 3.74 0 0 Z " fill="#F9FBFD" transform="translate(207,23)"/>
<path d="M0 0 C0 3.3 0 6.6 0 10 C-1.98 10.99 -3.96 11.98 -6 13 C-6 11.68 -6 10.36 -6 9 C-4.35 9 -2.7 9 -1 9 C-1 7.02 -1 5.04 -1 3 C-2.32 2.67 -3.64 2.34 -5 2 C-2 0 -2 0 0 0 Z " fill="#B8414E" transform="translate(57,22)"/>
<path d="M0 0 C1.32 0 2.64 0 4 0 C4 0.66 4 1.32 4 2 C3.01 2.495 3.01 2.495 2 3 C2.66 3.33 3.32 3.66 4 4 C3.67 5.65 3.34 7.3 3 9 C1.68 8.67 0.36 8.34 -1 8 C-0.01 7.34 0.98 6.68 2 6 C1.01 5.34 0.02 4.68 -1 4 C-0.67 2.68 -0.34 1.36 0 0 Z " fill="#6F747B" transform="translate(197,23)"/>
<path d="M0 0 C2.125 0.9375 2.125 0.9375 4 2 C3.34 2 2.68 2 2 2 C2 4.31 2 6.62 2 9 C1.01 9 0.02 9 -1 9 C-1.33 6.36 -1.66 3.72 -2 1 C-1.34 0.67 -0.68 0.34 0 0 Z " fill="#EAEDF0" transform="translate(149,21)"/>
<path d="M0 0 C0.66 0 1.32 0 2 0 C2.33 0.99 2.66 1.98 3 3 C3.99 2.01 4.98 1.02 6 0 C5.67 2.31 5.34 4.62 5 7 C4.01 7.33 3.02 7.66 2 8 C0.74335022 5.09399739 0 3.20395416 0 0 Z " fill="#6E717D" transform="translate(170,23)"/>
<path d="M0 0 C0.78375 0.185625 1.5675 0.37125 2.375 0.5625 C4.97089775 1.25962266 4.97089775 1.25962266 7 0 C7 0.66 7 1.32 7 2 C7.99 2.33 8.98 2.66 10 3 C8.35 3 6.7 3 5 3 C5 4.32 5 5.64 5 7 C4.34 7 3.68 7 3 7 C3 5.68 3 4.36 3 3 C2.01 3 1.02 3 0 3 C0 2.01 0 1.02 0 0 Z " fill="#EEF1F5" transform="translate(114,20)"/>
<path d="M0 0 C1.81325551 0.11351517 3.62563357 0.24112961 5.4375 0.375 C6.95150391 0.47941406 6.95150391 0.47941406 8.49609375 0.5859375 C9.73552734 0.79089844 9.73552734 0.79089844 11 1 C11.33 1.66 11.66 2.32 12 3 C8.37 3 4.74 3 1 3 C0.67 2.01 0.34 1.02 0 0 Z " fill="#E8BE51" transform="translate(45,48)"/>
<path d="M0 0 C2.475 0.495 2.475 0.495 5 1 C5 2.65 5 4.3 5 6 C3.68 5.34 2.36 4.68 1 4 C0.67 4.99 0.34 5.98 0 7 C0 4.69 0 2.38 0 0 Z " fill="#95989D" transform="translate(141,38)"/>
<path d="M0 0 C0.66 0 1.32 0 2 0 C2 0.66 2 1.32 2 2 C2.66 2 3.32 2 4 2 C4.33 1.34 4.66 0.68 5 0 C5 2.31 5 4.62 5 7 C4.67 6.01 4.34 5.02 4 4 C3.34 4 2.68 4 2 4 C2 4.99 2 5.98 2 7 C1.34 7 0.68 7 0 7 C0 4.69 0 2.38 0 0 Z " fill="#979BA0" transform="translate(179,38)"/>
<path d="M0 0 C0.99 0.495 0.99 0.495 2 1 C1.67 2.98 1.34 4.96 1 7 C1.66 7 2.32 7 3 7 C3 6.34 3 5.68 3 5 C4.32 5.33 5.64 5.66 7 6 C2.25 10 2.25 10 0 10 C0 6.7 0 3.4 0 0 Z " fill="#B43E4A" transform="translate(43,30)"/>
<path d="M0 0 C0.66 0 1.32 0 2 0 C2 0.66 2 1.32 2 2 C2.66 2 3.32 2 4 2 C4 1.34 4 0.68 4 0 C4.66 0 5.32 0 6 0 C5.34 2.97 4.68 5.94 4 9 C3.34 9 2.68 9 2 9 C1.34 6.03 0.68 3.06 0 0 Z " fill="#77787D" transform="translate(216,23)"/>
<path d="M0 0 C1.98 0.99 1.98 0.99 4 2 C4 2.66 4 3.32 4 4 C5.98 4.66 7.96 5.32 10 6 C10 6.33 10 6.66 10 7 C8.02 7 6.04 7 4 7 C3.67 6.34 3.34 5.68 3 5 C2.01 4.67 1.02 4.34 0 4 C0 2.68 0 1.36 0 0 Z " fill="#FBEFC6" transform="translate(38,46)"/>
<path d="M0 0 C0.99 0.33 1.98 0.66 3 1 C2.67 3.31 2.34 5.62 2 8 C1.01 8 0.02 8 -1 8 C-0.67 5.36 -0.34 2.72 0 0 Z " fill="#CFD1DD" transform="translate(89,23)"/>
<path d="M0 0 C0.66 0.33 1.32 0.66 2 1 C2 3.31 2 5.62 2 8 C0.68 7.34 -0.64 6.68 -2 6 C-2 4.35 -2 2.7 -2 1 C-1.34 0.67 -0.68 0.34 0 0 Z " fill="#8D919C" transform="translate(191,23)"/>
<path d="M0 0 C1.32 0.33 2.64 0.66 4 1 C3.01 3.97 2.02 6.94 1 10 C0.67 10 0.34 10 0 10 C0 6.7 0 3.4 0 0 Z " fill="#E8BD45" transform="translate(44,17)"/>
<path d="M0 0 C0.22786458 2.01822917 0.45572917 4.03645833 0.68359375 6.0546875 C0.91292961 8.07404316 0.91292961 8.07404316 2 10 C0.68 10.33 -0.64 10.66 -2 11 C-1.67 8.03 -1.34 5.06 -1 2 C-2.65 2 -4.3 2 -6 2 C-2.25 0 -2.25 0 0 0 Z " fill="#E7EAEE" transform="translate(126,36)"/>
<path d="M0 0 C0.33 0 0.66 0 1 0 C1 2.64 1 5.28 1 8 C2.65 8 4.3 8 6 8 C5.67 8.99 5.34 9.98 5 11 C3.35 10.67 1.7 10.34 0 10 C0 6.7 0 3.4 0 0 Z " fill="#D4D6DD" transform="translate(119,23)"/>
<path d="M0 0 C0.4125 0.66 0.825 1.32 1.25 2 C1.8275 2.66 2.405 3.32 3 4 C4.32 4 5.64 4 7 4 C7 4.66 7 5.32 7 6 C6.34 6 5.68 6 5 6 C4.67 6.99 4.34 7.98 4 9 C3.67 8.34 3.34 7.68 3 7 C2.01 6.67 1.02 6.34 0 6 C-0.38218767 4.34385343 -0.71395102 2.67542976 -1 1 C-0.67 0.67 -0.34 0.34 0 0 Z " fill="#EEF2F2" transform="translate(145,27)"/>
<path d="M0 0 C2.78637633 4.1795645 1.79562512 6.14668677 1 11 C0.896875 10.360625 0.79375 9.72125 0.6875 9.0625 C0.460625 8.381875 0.23375 7.70125 0 7 C-0.99 6.67 -1.98 6.34 -3 6 C-2.01 5.67 -1.02 5.34 0 5 C0 4.34 0 3.68 0 3 C-1.32 2.67 -2.64 2.34 -4 2 C-2.68 2 -1.36 2 0 2 C0 1.34 0 0.68 0 0 Z " fill="#E0E4EA" transform="translate(201,20)"/>
<path d="M0 0 C1.98 0 3.96 0 6 0 C6 0.99 6 1.98 6 3 C4.35 3.33 2.7 3.66 1 4 C0.67 2.68 0.34 1.36 0 0 Z " fill="#FCEDED" transform="translate(48,21)"/>
<path d="M0 0 C0.33 0 0.66 0 1 0 C1 1.98 1 3.96 1 6 C1.99 6 2.98 6 4 6 C4.33 6.99 4.66 7.98 5 9 C3.02 9 1.04 9 -1 9 C-0.67 6.03 -0.34 3.06 0 0 Z " fill="#F6F8F6" transform="translate(153,39)"/>
<path d="M0 0 C0.99 0 1.98 0 3 0 C4 7.625 4 7.625 4 11 C2.68 10.34 1.36 9.68 0 9 C0.66 6.36 1.32 3.72 2 1 C1.34 0.67 0.68 0.34 0 0 Z " fill="#E2E5E6" transform="translate(158,24)"/>
<path d="M0 0 C1.32 0 2.64 0 4 0 C4.33 1.98 4.66 3.96 5 6 C3.35 5.67 1.7 5.34 0 5 C0 4.34 0 3.68 0 3 C0.66 3 1.32 3 2 3 C2 2.34 2 1.68 2 1 C1.34 0.67 0.68 0.34 0 0 Z " fill="#EAECEE" transform="translate(169,39)"/>
<path d="M0 0 C0.99 0.33 1.98 0.66 3 1 C2.67 1.33 2.34 1.66 2 2 C2.66 2.33 3.32 2.66 4 3 C3.67 4.32 3.34 5.64 3 7 C2.01 7 1.02 7 0 7 C0 4.66666667 0 2.33333333 0 0 Z " fill="#96989A" transform="translate(99,38)"/>
<path d="M0 0 C0.66 0.33 1.32 0.66 2 1 C2 2.98 2 4.96 2 7 C1.34 7 0.68 7 0 7 C0 6.34 0 5.68 0 5 C-0.99 4.67 -1.98 4.34 -3 4 C-2.01 3.67 -1.02 3.34 0 3 C0 2.01 0 1.02 0 0 Z " fill="#70737F" transform="translate(97,24)"/>
<path d="M0 0 C0.99 0 1.98 0 3 0 C4.33332095 2.6666419 3.67102033 4.16680303 3 7 C2.34 7 1.68 7 1 7 C0.67 4.69 0.34 2.38 0 0 Z " fill="#9EA1A4" transform="translate(218,38)"/>
<path d="M0 0 C1.32 0 2.64 0 4 0 C4 0.99 4 1.98 4 3 C2.35 3.66 0.7 4.32 -1 5 C-0.67 3.35 -0.34 1.7 0 0 Z " fill="#E51833" transform="translate(46,31)"/>
<path d="M0 0 C0.33 0 0.66 0 1 0 C1.33 2.64 1.66 5.28 2 8 C0.35 8.66 -1.3 9.32 -3 10 C-2.690625 9.46375 -2.38125 8.9275 -2.0625 8.375 C-0.82172561 5.6015043 -0.4090325 2.99957163 0 0 Z " fill="#F1B471" transform="translate(46,20)"/>
<path d="M0 0 C1.98 0.495 1.98 0.495 4 1 C4 1.99 4 2.98 4 4 C2.35 3.67 0.7 3.34 -1 3 C-0.67 2.01 -0.34 1.02 0 0 Z " fill="#9697A4" transform="translate(134,23)"/>
</svg>
